<svg width="289" height="477" viewBox="0 0 289 477" fill="none" xmlns="http://www.w3.org/2000/svg">
<rect x="33.25" y="361.25" width="179.5" height="79.5" fill="#D9D9D9" stroke="black" stroke-width="0.5"/>
<rect x="33.25" y="341.25" width="179.5" height="19.5" fill="#D9D9D9" stroke="black" stroke-width="0.5"/>
<path d="M53 466V441H33V466" stroke="black" stroke-width="0.5"/>
<path d="M53 466C53 471.523 48.5228 476 43 476C37.4772 476 33 471.523 33 466" stroke="black" stroke-width="0.5"/>
<path d="M213 466V441H193V466" stroke="black" stroke-width="0.5"/>
<path d="M213 466C213 471.523 208.523 476 203 476C197.477 476 193 471.523 193 466" stroke="black" stroke-width="0.5"/>
<circle cx="43" cy="466" r="4.75" fill="#D9D9D9" stroke="black" stroke-width="0.5"/>
<circle cx="203" cy="466" r="4.75" fill="#D9D9D9" stroke="black" stroke-width="0.5"/>
<rect x="27.25" y="356.25" width="5.5" height="9.5" fill="#D9D9D9" stroke="black" stroke-width="0.5"/>
<path d="M27.3608 355.75L28.6733 352.25H32.75V355.75H27.3608ZM32.75 366.25V369.75H28.6732L27.3608 366.25H32.75Z" fill="#D9D9D9" stroke="black" stroke-width="0.5"/>
<rect x="-0.25" y="0.25" width="5.5" height="6.5" transform="matrix(-1 0 0 1 218.5 348)" fill="#D9D9D9" stroke="black" stroke-width="0.5"/>
<path d="M218.553 348.194L217.36 346.25H213.25V348.194H218.553ZM213.25 354.806V356.75H217.36L218.553 354.806H213.25Z" fill="#D9D9D9" stroke="black" stroke-width="0.5"/>
<mask id="path-13-inside-1_0_1" fill="white">
<path d="M12 358H27V363H12V358Z"/>
</mask>
<path d="M12 358H27V363H12V358Z" fill="#353535"/>
<path d="M12 358V357.5H11.5V358H12ZM27 358H27.5V357.5H27V358ZM27 363V363.5H27.5V363H27ZM12 363H11.5V363.5H12V363ZM12 358.5H27V357.5H12V358.5ZM26.5 358V363H27.5V358H26.5ZM27 362.5H12V363.5H27V362.5ZM12.5 363V358H11.5V363H12.5Z" fill="black" mask="url(#path-13-inside-1_0_1)"/>
<mask id="path-15-inside-2_0_1" fill="white">
<path d="M7 354C7 353.448 7.44772 353 8 353H11C11.5523 353 12 353.448 12 354V367C12 367.552 11.5523 368 11 368H8C7.44772 368 7 367.552 7 367V354Z"/>
</mask>
<path d="M7 354C7 353.448 7.44772 353 8 353H11C11.5523 353 12 353.448 12 354V367C12 367.552 11.5523 368 11 368H8C7.44772 368 7 367.552 7 367V354Z" fill="#D9D9D9"/>
<path d="M8 353.5H11V352.5H8V353.5ZM11.5 354V367H12.5V354H11.5ZM11 367.5H8V368.5H11V367.5ZM7.5 367V354H6.5V367H7.5ZM8 367.5C7.72386 367.5 7.5 367.276 7.5 367H6.5C6.5 367.828 7.17157 368.5 8 368.5V367.5ZM11.5 367C11.5 367.276 11.2761 367.5 11 367.5V368.5C11.8284 368.5 12.5 367.828 12.5 367H11.5ZM11 353.5C11.2761 353.5 11.5 353.724 11.5 354H12.5C12.5 353.172 11.8284 352.5 11 352.5V353.5ZM8 352.5C7.17157 352.5 6.5 353.172 6.5 354H7.5C7.5 353.724 7.72386 353.5 8 353.5V352.5Z" fill="black" mask="url(#path-15-inside-2_0_1)"/>
<mask id="path-17-inside-3_0_1" fill="white">
<path d="M227 350H219V353H227V350Z"/>
</mask>
<path d="M227 350H219V353H227V350Z" fill="#353535"/>
<path d="M227 350V349.5H227.5V350H227ZM219 350H218.5V349.5H219V350ZM219 353V353.5H218.5V353H219ZM227 353H227.5V353.5H227V353ZM227 350.5H219V349.5H227V350.5ZM219.5 350V353H218.5V350H219.5ZM219 352.5H227V353.5H219V352.5ZM226.5 353V350H227.5V353H226.5Z" fill="black" mask="url(#path-17-inside-3_0_1)"/>
<path d="M228.5 347.25H226.5C226.362 347.25 226.25 347.362 226.25 347.5V355.5C226.25 355.638 226.362 355.75 226.5 355.75H228.5C228.638 355.75 228.75 355.638 228.75 355.5V347.5C228.75 347.362 228.638 347.25 228.5 347.25Z" fill="#D9D9D9" stroke="black" stroke-width="0.5"/>
<rect x="205.15" y="343.15" width="4.7" height="4.7" rx="1.85" fill="#D9D9D9" stroke="black" stroke-width="0.3"/>
<path d="M43.9347 351.182L44.0028 349.307L42.4176 350.312L42.0085 349.597L43.679 348.727L42.0085 347.858L42.4176 347.142L44.0028 348.148L43.9347 346.273H44.7528L44.6847 348.148L46.2699 347.142L46.679 347.858L45.0085 348.727L46.679 349.597L46.2699 350.312L44.6847 349.307L44.7528 351.182H43.9347ZM47.9233 347.21V346.273H54.4688V347.21H51.7244V355H50.6676V347.21H47.9233ZM55.4382 355H54.3303L57.5348 346.273H58.6257L61.8303 355H60.7223L58.1143 347.653H58.0462L55.4382 355ZM55.8473 351.591H60.3132V352.528H55.8473V351.591ZM65.6942 346.273V355H64.6374V347.381H64.5863L62.4556 348.795V347.722L64.6374 346.273H65.6942ZM73.1303 348.455C73.0792 348.023 72.8718 347.688 72.5082 347.449C72.1445 347.21 71.6985 347.091 71.1701 347.091C70.7837 347.091 70.4457 347.153 70.1559 347.278C69.869 347.403 69.6445 347.575 69.4826 347.794C69.3235 348.013 69.244 348.261 69.244 348.54C69.244 348.773 69.2994 348.973 69.4102 349.141C69.5238 349.305 69.6687 349.443 69.8448 349.554C70.021 349.662 70.2056 349.751 70.3988 349.822C70.592 349.891 70.7695 349.946 70.9315 349.989L71.8178 350.227C72.0451 350.287 72.2979 350.369 72.5763 350.474C72.8576 350.58 73.1261 350.723 73.3817 350.905C73.6403 351.084 73.8533 351.314 74.021 351.595C74.1886 351.876 74.2724 352.222 74.2724 352.631C74.2724 353.102 74.1488 353.528 73.9016 353.909C73.6573 354.29 73.2994 354.592 72.8278 354.817C72.359 355.041 71.7894 355.153 71.119 355.153C70.494 355.153 69.9528 355.053 69.4954 354.851C69.0408 354.649 68.6829 354.368 68.4215 354.007C68.163 353.646 68.0167 353.227 67.9826 352.75H69.0735C69.1019 353.08 69.2127 353.352 69.4059 353.568C69.6019 353.781 69.8491 353.94 70.1474 354.045C70.4485 354.148 70.7724 354.199 71.119 354.199C71.5224 354.199 71.8846 354.134 72.2056 354.003C72.5266 353.869 72.7809 353.685 72.9684 353.449C73.1559 353.21 73.2496 352.932 73.2496 352.614C73.2496 352.324 73.1687 352.088 73.0067 351.906C72.8448 351.724 72.6317 351.577 72.3675 351.463C72.1033 351.349 71.8178 351.25 71.511 351.165L70.4371 350.858C69.7553 350.662 69.2156 350.382 68.8178 350.018C68.4201 349.655 68.2212 349.179 68.2212 348.591C68.2212 348.102 68.3533 347.676 68.6175 347.312C68.8846 346.946 69.2425 346.662 69.6914 346.46C70.1431 346.256 70.6474 346.153 71.2042 346.153C71.7667 346.153 72.2667 346.254 72.7042 346.456C73.1417 346.655 73.4883 346.928 73.744 347.274C74.0025 347.621 74.1388 348.014 74.1531 348.455H73.1303ZM78.7031 355H76.0099V346.273H78.8224C79.669 346.273 80.3935 346.447 80.9957 346.797C81.598 347.143 82.0597 347.642 82.3807 348.293C82.7017 348.94 82.8622 349.716 82.8622 350.619C82.8622 351.528 82.7003 352.311 82.3764 352.967C82.0526 353.621 81.581 354.124 80.9616 354.476C80.3423 354.825 79.5895 355 78.7031 355ZM77.0668 354.062H78.6349C79.3565 354.062 79.9545 353.923 80.429 353.645C80.9034 353.366 81.2571 352.97 81.4901 352.456C81.723 351.942 81.8395 351.33 81.8395 350.619C81.8395 349.915 81.7244 349.308 81.4943 348.8C81.2642 348.288 80.9205 347.896 80.4631 347.624C80.0057 347.348 79.4361 347.21 78.7543 347.21H77.0668V354.062ZM87.3281 355.119C86.6861 355.119 86.1392 354.945 85.6875 354.595C85.2358 354.243 84.8906 353.733 84.652 353.065C84.4134 352.395 84.294 351.585 84.294 350.636C84.294 349.693 84.4134 348.888 84.652 348.22C84.8935 347.55 85.2401 347.038 85.6918 346.686C86.1463 346.331 86.6918 346.153 87.3281 346.153C87.9645 346.153 88.5085 346.331 88.9602 346.686C89.4148 347.038 89.7614 347.55 90 348.22C90.2415 348.888 90.3622 349.693 90.3622 350.636C90.3622 351.585 90.2429 352.395 90.0043 353.065C89.7656 353.733 89.4205 354.243 88.9688 354.595C88.517 354.945 87.9702 355.119 87.3281 355.119ZM87.3281 354.182C87.9645 354.182 88.4588 353.875 88.8111 353.261C89.1634 352.648 89.3395 351.773 89.3395 350.636C89.3395 349.881 89.2585 349.237 89.0966 348.706C88.9375 348.175 88.7074 347.77 88.4062 347.491C88.108 347.213 87.7486 347.074 87.3281 347.074C86.6974 347.074 86.2045 347.385 85.8494 348.007C85.4943 348.626 85.3168 349.503 85.3168 350.636C85.3168 351.392 85.3963 352.034 85.5554 352.562C85.7145 353.091 85.9432 353.493 86.2415 353.768C86.5426 354.044 86.9048 354.182 87.3281 354.182ZM94.8281 355.119C94.1861 355.119 93.6392 354.945 93.1875 354.595C92.7358 354.243 92.3906 353.733 92.152 353.065C91.9134 352.395 91.794 351.585 91.794 350.636C91.794 349.693 91.9134 348.888 92.152 348.22C92.3935 347.55 92.7401 347.038 93.1918 346.686C93.6463 346.331 94.1918 346.153 94.8281 346.153C95.4645 346.153 96.0085 346.331 96.4602 346.686C96.9148 347.038 97.2614 347.55 97.5 348.22C97.7415 348.888 97.8622 349.693 97.8622 350.636C97.8622 351.585 97.7429 352.395 97.5043 353.065C97.2656 353.733 96.9205 354.243 96.4688 354.595C96.017 354.945 95.4702 355.119 94.8281 355.119ZM94.8281 354.182C95.4645 354.182 95.9588 353.875 96.3111 353.261C96.6634 352.648 96.8395 351.773 96.8395 350.636C96.8395 349.881 96.7585 349.237 96.5966 348.706C96.4375 348.175 96.2074 347.77 95.9062 347.491C95.608 347.213 95.2486 347.074 94.8281 347.074C94.1974 347.074 93.7045 347.385 93.3494 348.007C92.9943 348.626 92.8168 349.503 92.8168 350.636C92.8168 351.392 92.8963 352.034 93.0554 352.562C93.2145 353.091 93.4432 353.493 93.7415 353.768C94.0426 354.044 94.4048 354.182 94.8281 354.182ZM102.328 355.119C101.686 355.119 101.139 354.945 100.688 354.595C100.236 354.243 99.8906 353.733 99.652 353.065C99.4134 352.395 99.294 351.585 99.294 350.636C99.294 349.693 99.4134 348.888 99.652 348.22C99.8935 347.55 100.24 347.038 100.692 346.686C101.146 346.331 101.692 346.153 102.328 346.153C102.964 346.153 103.509 346.331 103.96 346.686C104.415 347.038 104.761 347.55 105 348.22C105.241 348.888 105.362 349.693 105.362 350.636C105.362 351.585 105.243 352.395 105.004 353.065C104.766 353.733 104.42 354.243 103.969 354.595C103.517 354.945 102.97 355.119 102.328 355.119ZM102.328 354.182C102.964 354.182 103.459 353.875 103.811 353.261C104.163 352.648 104.339 351.773 104.339 350.636C104.339 349.881 104.259 349.237 104.097 348.706C103.938 348.175 103.707 347.77 103.406 347.491C103.108 347.213 102.749 347.074 102.328 347.074C101.697 347.074 101.205 347.385 100.849 348.007C100.494 348.626 100.317 349.503 100.317 350.636C100.317 351.392 100.396 352.034 100.555 352.562C100.714 353.091 100.943 353.493 101.241 353.768C101.543 354.044 101.905 354.182 102.328 354.182ZM110.05 346.273V355H108.993V347.381H108.942L106.811 348.795V347.722L108.993 346.273H110.05ZM114.247 351.182L114.315 349.307L112.73 350.312L112.321 349.597L113.991 348.727L112.321 347.858L112.73 347.142L114.315 348.148L114.247 346.273H115.065L114.997 348.148L116.582 347.142L116.991 347.858L115.321 348.727L116.991 349.597L116.582 350.312L114.997 349.307L115.065 351.182H114.247Z" fill="black"/>
<path d="M179.718 306.499L175 337.142L184.8 337.114L195.09 337.084L199.12 309.226" stroke="black"/>
<path d="M213 341V339C213 337.895 212.105 337 211 337H35C33.8954 337 33 337.895 33 339V341" stroke="black" stroke-width="0.5"/>
<path d="M199.249 309.745C199.556 307.557 195.372 305.16 189.903 304.392C184.434 303.623 179.751 304.773 179.443 306.961" stroke="black"/>
<path d="M199 308.938L204.733 270.776C204.906 269.628 204.673 268.456 204.076 267.46L203.457 266.428C202.553 264.921 200.925 264 199.169 264H182.131C180.678 264 179.5 265.178 179.5 266.631V266.631C179.5 268.342 177.892 269.598 176.231 269.183L170.626 267.781C169.885 267.596 169.112 267.583 168.365 267.743L163.944 268.691C163.001 268.893 162.137 269.363 161.456 270.044L160.156 271.344C159.723 271.777 159.372 272.288 159.123 272.848L157.931 275.53C157.647 276.17 157.5 276.861 157.5 277.561V279.857C157.5 281.226 158.061 282.534 159.052 283.478L168 292L179.5 306.5" stroke="black"/>
<circle cx="167" cy="273" r="2.75" fill="#D9D9D9" stroke="black" stroke-width="0.5"/>
<circle cx="163" cy="279" r="2.75" fill="#D9D9D9" stroke="black" stroke-width="0.5"/>
<path d="M187 240.5V264H199V244" stroke="black"/>
<path d="M248 93L187.041 240.838M259.081 93.4479L199 244.5" stroke="black"/>
<path d="M259 94L262.611 63.0459L250.657 62L248.015 93.2435" stroke="black"/>
<path d="M136.017 320.49L146.5 336.571L156.5 336.571L166.236 336.571L153.428 311.505" stroke="black" stroke-dasharray="5 5"/>
<path d="M153.833 311.854C152.82 309.891 148.02 310.353 143.112 312.886C138.204 315.418 135.047 319.063 136.06 321.026" stroke="black" stroke-dasharray="5 5"/>
<path d="M153.164 311.339L135.793 276.88C135.27 275.843 134.403 275.021 133.341 274.554L132.238 274.069C130.631 273.362 128.77 273.55 127.336 274.565L113.43 284.41C112.244 285.249 111.964 286.891 112.803 288.077V288.077C113.792 289.474 113.205 291.428 111.61 292.048L106.225 294.144C105.513 294.42 104.875 294.856 104.358 295.418L101.297 298.746C100.644 299.456 100.211 300.339 100.048 301.289L99.7384 303.1C99.635 303.705 99.6438 304.324 99.7644 304.925L100.341 307.803C100.479 308.489 100.759 309.139 101.163 309.71L102.489 311.584C103.28 312.7 104.494 313.444 105.848 313.642L118.076 315.427L135.84 320.617" stroke="black" stroke-dasharray="5 5"/>
<circle cx="106.281" cy="300.498" r="2.5" transform="rotate(-35.2962 106.281 300.498)" fill="#D9D9D9" stroke="black" stroke-dasharray="5 5"/>
<circle cx="106.483" cy="307.706" r="2.5" transform="rotate(-35.2962 106.483 307.706)" fill="#D9D9D9" stroke="black" stroke-dasharray="5 5"/>
<path d="M103.826 262.416L117.404 281.596L127.198 274.662L115.642 258.339" stroke="black" stroke-dasharray="5 5"/>
<path d="M69.0393 106.582L103.346 262.771M78.3948 100.626L115.256 258.954" stroke="black" stroke-dasharray="5 5"/>
<path d="M77.9423 101.244L63.0045 73.8937L52.6433 79.9473L68.5396 106.974" stroke="black" stroke-dasharray="5 5"/>
<path d="M229.707 40.7071C230.098 40.3166 230.098 39.6834 229.707 39.2929L223.343 32.9289C222.953 32.5384 222.319 32.5384 221.929 32.9289C221.538 33.3195 221.538 33.9526 221.929 34.3431L227.586 40L221.929 45.6569C221.538 46.0474 221.538 46.6805 221.929 47.0711C222.319 47.4616 222.953 47.4616 223.343 47.0711L229.707 40.7071ZM79 41L229 41V39L79 39V41Z" fill="#525252"/>
<path d="M73.7592 7.63636V28H71.2933V10.2216H71.174L66.2024 13.5227V11.017L71.2933 7.63636H73.7592Z" fill="black"/>
<path d="M205.131 26V24.2102L211.853 16.8523C212.642 15.9905 213.291 15.2415 213.802 14.6051C214.312 13.9621 214.69 13.3589 214.935 12.7955C215.187 12.2254 215.313 11.6288 215.313 11.0057C215.313 10.2898 215.141 9.66998 214.796 9.14631C214.458 8.62263 213.994 8.21828 213.404 7.93324C212.814 7.6482 212.151 7.50568 211.415 7.50568C210.633 7.50568 209.951 7.66809 209.367 7.9929C208.79 8.31108 208.343 8.75852 208.025 9.33523C207.713 9.91193 207.558 10.5881 207.558 11.3636H205.211C205.211 10.1705 205.486 9.12311 206.036 8.22159C206.586 7.32007 207.335 6.61742 208.283 6.11364C209.238 5.60985 210.308 5.35795 211.495 5.35795C212.688 5.35795 213.746 5.60985 214.667 6.11364C215.588 6.61742 216.311 7.29687 216.835 8.15199C217.358 9.0071 217.62 9.95833 217.62 11.0057C217.62 11.7547 217.484 12.4872 217.212 13.2031C216.947 13.9124 216.483 14.7045 215.82 15.5795C215.164 16.4479 214.253 17.5085 213.086 18.7614L208.512 23.6534V23.8125H217.978V26H205.131Z" fill="black"/>
<path d="M271.127 9.61195L271.132 9.61451L275.426 12.2708C275.45 12.2858 275.472 12.3029 275.493 12.3219L279.783 16.2604L286.842 22.7405C286.906 22.7991 286.95 22.8747 286.971 22.9592L288.246 28.1735C288.267 28.2587 288.263 28.3497 288.234 28.4367L286.849 32.5802C286.835 32.6224 286.815 32.663 286.79 32.701L264.897 66.2808C264.778 66.4631 264.558 66.5629 264.349 66.5297L248.301 63.9895C248.066 63.9522 247.904 63.758 247.915 63.525L248.534 49.6884C248.538 49.6098 248.535 49.5315 248.525 49.4544L246.749 35.1585C246.735 35.0424 246.705 34.9296 246.662 34.8225L241.029 20.8707C241 20.8003 240.966 20.7326 240.926 20.6684L236.646 13.803L236.64 13.7933L236.634 13.784L231.291 6.13482C231.165 5.95499 231.191 5.70548 231.353 5.53028L234.956 1.63937C235.05 1.53729 235.18 1.47271 235.317 1.46013L243.617 0.695375C243.642 0.693053 243.667 0.692524 243.692 0.693792L253.698 1.20204C253.755 1.20493 253.81 1.21712 253.861 1.23809L259.543 3.56812L265.302 5.93029C265.328 5.94068 265.352 5.95317 265.375 5.96762L271.127 9.61195Z" fill="#D9D9D9" stroke="black"/>
<path d="M34.4409 27.2903L34.4458 27.2896L35.695 27.1082C35.9598 27.0698 36.1568 26.8087 36.1351 26.5251L37.6747 26.3016C37.6965 26.5852 37.9287 26.784 38.1935 26.7456L39.4427 26.5643C39.4708 26.5602 39.4991 26.5587 39.5272 26.56L40.9817 26.6249C41.2462 26.6367 41.4808 26.4144 41.5057 26.1284L43.4569 26.2154C43.432 26.5014 43.6262 26.7428 43.8907 26.7546L45.3452 26.8194L47.7383 26.9261C48.0028 26.9379 48.2374 26.7156 48.2623 26.4296L52.0909 26.6003C52.0659 26.8863 52.2601 27.1278 52.5246 27.1396L54.9177 27.2463C55.0044 27.2501 55.0872 27.2793 55.1573 27.3308L56.2394 28.1245C56.4535 28.2815 56.7546 28.2148 56.9119 27.9755L58.3007 28.9942C58.1435 29.2335 58.1896 29.5549 58.4037 29.7119L59.4858 30.5056C59.5034 30.5185 59.5201 30.5328 59.5357 30.5481C59.5519 30.5641 59.5689 30.5785 59.5866 30.5915C59.595 30.6128 59.6048 30.6337 59.6162 30.654C59.6272 30.6735 59.6369 30.694 59.6453 30.7153L60.046 31.7313C60.1478 31.9895 60.4292 32.0987 60.6746 31.9752L61.1072 33.0722C60.8618 33.1957 60.7455 33.5052 60.8473 33.7634L61.2479 34.7795C61.252 34.7898 61.2558 34.8003 61.2592 34.8109C61.2626 34.8216 61.2664 34.8322 61.2704 34.8425C61.2718 34.8537 61.2735 34.8649 61.2756 34.8761C61.2777 34.8872 61.2794 34.8984 61.2807 34.9096L61.5816 37.3969C61.6156 37.6785 61.8568 37.8649 62.1203 37.8132L62.5986 41.7682C62.3351 41.8198 62.1492 42.0899 62.1832 42.3715L62.7849 47.346C62.819 47.6276 63.0601 47.814 63.3236 47.7623L63.802 51.7173C63.5385 51.7689 63.3525 52.039 63.3866 52.3206L63.9882 57.2951C64.0223 57.5767 64.2635 57.7631 64.5269 57.7115L65.0053 61.6664C64.7418 61.7181 64.5559 61.9881 64.5899 62.2697L65.1916 67.2443C65.2256 67.5258 65.4668 67.7122 65.7303 67.6606L66.2086 71.6155C65.9452 71.6672 65.7592 71.9373 65.7933 72.2188L66.0941 74.7061C66.1202 74.9222 66.0161 75.1398 65.8341 75.2491L64.0934 76.2953C63.8563 76.4377 63.7613 76.7545 63.8812 77.0028L61.2582 78.5791C61.1383 78.3309 60.8489 78.2451 60.6119 78.3876L57.1304 80.4799C56.8933 80.6224 56.7983 80.9391 56.9182 81.1874L54.2952 82.7638C54.1753 82.5155 53.886 82.4297 53.6489 82.5722L51.9081 83.6184C51.704 83.7411 51.4553 83.6962 51.3135 83.511L49.2087 80.7615C49.0441 80.5465 48.7417 80.5254 48.5331 80.7144L44.9196 75.9941C45.1281 75.8051 45.1637 75.4776 44.9991 75.2626L42.8943 72.5132C42.8464 72.4507 42.7938 72.3927 42.7369 72.3398L40.0994 69.8874C39.9036 69.7053 39.5994 69.7368 39.4198 69.9577L34.8539 65.7122C35.0335 65.4913 35.0203 65.1646 34.8245 64.9826L32.1871 62.5302C32.1014 62.4505 32.0065 62.3828 31.9045 62.3286L30.2441 61.4453C30.011 61.3213 29.7187 61.4299 29.5912 61.6879L27.1143 60.3702C27.2418 60.1122 27.1563 59.8026 26.9232 59.6786L23.6023 57.912C23.3693 57.788 23.077 57.8966 22.9495 58.1546L20.4725 56.8369C20.6 56.5789 20.5145 56.2693 20.2815 56.1453L18.621 55.262C18.554 55.2263 18.4841 55.1966 18.4122 55.1731L16.4893 54.5461C16.239 54.4644 15.9639 54.6207 15.8749 54.8951L12.9355 53.9365C13.0246 53.6621 12.8939 53.3735 12.6436 53.2919L10.7208 52.6649C10.7136 52.6625 10.7063 52.6603 10.699 52.6584L8.44659 52.052C8.19236 51.9836 7.9238 52.1534 7.84676 52.4314L4.26263 51.4665C4.33967 51.1886 4.19603 50.9078 3.94179 50.8394L1.68939 50.233C1.47758 50.176 1.3369 49.9683 1.34854 49.7299L1.41316 48.4058C1.42713 48.1196 1.2234 47.8876 0.958114 47.8876L1.03676 46.2762C1.30205 46.2761 1.52843 46.044 1.5424 45.7578L1.60702 44.4337C1.6138 44.2948 1.672 44.1617 1.76856 44.0642L3.23515 42.584C3.43408 42.3832 3.4526 42.0551 3.27653 41.8511L5.48935 39.6177C5.66542 39.8217 5.96942 39.8244 6.16834 39.6236L7.63493 38.1434C7.65275 38.1254 7.6717 38.1088 7.69165 38.0938L9.68965 36.5831C9.91241 36.4147 9.97564 36.0905 9.83089 35.8591L13.0202 33.4477C13.165 33.6791 13.4629 33.7302 13.6857 33.5618L15.6837 32.0512C15.7291 32.0168 15.7792 31.9907 15.8318 31.9739L17.2943 31.5071C17.5524 31.4248 17.7106 31.1358 17.6477 30.8616L19.6379 30.2265C19.7009 30.5006 19.9611 30.6561 20.2192 30.5737L21.6816 30.107L23.1642 29.6338C23.4223 29.5514 23.5806 29.2624 23.5177 28.9883L25.5483 28.3402C25.6112 28.6144 25.8714 28.7698 26.1295 28.6874L27.6121 28.2143C27.6382 28.206 27.6648 28.2 27.6915 28.1964L29.3789 27.9698C29.6438 27.9343 29.8432 27.6752 29.8241 27.3912L32.2393 27.0669C32.2584 27.3509 32.4886 27.5523 32.7536 27.5168L34.4409 27.2903Z" fill="#D9D9D9" stroke="black" stroke-linecap="round" stroke-linejoin="round" stroke-dasharray="5 5"/>
</svg>
