<svg width="140" height="105" viewBox="0 0 210 158" fill="none" xmlns="http://www.w3.org/2000/svg">
<g clip-path="url(#clip0_1_2)">
<path d="M195 68V20C195 18.8954 194.105 18 193 18H182C180.895 18 180 18.8954 180 20V68" stroke="black"/>
<path d="M127 83L101.093 51.2277C100.713 50.7612 100.488 50.1196 100.467 49.4404L99.5768 20.4961C99.5339 19.1016 98.6519 18 97.5784 18H89C87.8954 18 87 19.164 87 20.6V49.5022C87 50.1446 87.1829 50.7642 87.5134 51.2416L109.5 83" stroke="black"/>
<path d="M45 68V20C45 18.8954 44.1046 18 43 18H32C30.8954 18 30 18.8954 30 20V68" stroke="#4E4E4E" stroke-opacity="0.2" stroke-linejoin="round" stroke-dasharray="6 6"/>
<path d="M168.627 68.5H201C203.485 68.5 205.5 70.5147 205.5 73V153C205.5 155.485 203.485 157.5 201 157.5H181H161C158.515 157.5 156.5 155.485 156.5 153V126.241C156.5 125.594 156.639 124.955 156.909 124.367L163.627 109.7C163.957 108.981 164.127 108.2 164.127 107.409V96.35V73C164.127 70.5147 166.142 68.5 168.627 68.5Z" fill="#D9D9D9" stroke="black"/>
<path d="M195 84.5C197.485 84.5 199.5 82.4853 199.5 80C199.5 77.5147 197.485 75.5 195 75.5C192.515 75.5 190.5 77.5147 190.5 80C190.5 82.4853 192.515 84.5 195 84.5Z" fill="#D9D9D9" stroke="black"/>
<path d="M175 84.5C177.485 84.5 179.5 82.4853 179.5 80C179.5 77.5147 177.485 75.5 175 75.5C172.515 75.5 170.5 77.5147 170.5 80C170.5 82.4853 172.515 84.5 175 84.5Z" fill="#D9D9D9" stroke="black"/>
<path d="M175 97.5C177.485 97.5 179.5 95.4853 179.5 93C179.5 90.5147 177.485 88.5 175 88.5C172.515 88.5 170.5 90.5147 170.5 93C170.5 95.4853 172.515 97.5 175 97.5Z" fill="#D9D9D9" stroke="black"/>
<path d="M195 97.5C197.485 97.5 199.5 95.4853 199.5 93C199.5 90.5147 197.485 88.5 195 88.5C192.515 88.5 190.5 90.5147 190.5 93C190.5 95.4853 192.515 97.5 195 97.5Z" fill="#D9D9D9" stroke="black"/>
<path d="M195 110.5C197.485 110.5 199.5 108.485 199.5 106C199.5 103.515 197.485 101.5 195 101.5C192.515 101.5 190.5 103.515 190.5 106C190.5 108.485 192.515 110.5 195 110.5Z" fill="#D9D9D9" stroke="black"/>
<path d="M175 110.5C177.485 110.5 179.5 108.485 179.5 106C179.5 103.515 177.485 101.5 175 101.5C172.515 101.5 170.5 103.515 170.5 106C170.5 108.485 172.515 110.5 175 110.5Z" fill="#D9D9D9" stroke="black"/>
<path d="M199.5 121.25H165.5C165.362 121.25 165.25 121.362 165.25 121.5C165.25 121.638 165.362 121.75 165.5 121.75H199.5C199.638 121.75 199.75 121.638 199.75 121.5C199.75 121.362 199.638 121.25 199.5 121.25Z" fill="#D9D9D9" stroke="black" stroke-width="0.5"/>
<path d="M199.5 131.25H165.5C165.362 131.25 165.25 131.362 165.25 131.5C165.25 131.638 165.362 131.75 165.5 131.75H199.5C199.638 131.75 199.75 131.638 199.75 131.5C199.75 131.362 199.638 131.25 199.5 131.25Z" fill="#D9D9D9" stroke="black" stroke-width="0.5"/>
<path d="M199.5 141.25H165.5C165.362 141.25 165.25 141.362 165.25 141.5C165.25 141.638 165.362 141.75 165.5 141.75H199.5C199.638 141.75 199.75 141.638 199.75 141.5C199.75 141.362 199.638 141.25 199.5 141.25Z" fill="#D9D9D9" stroke="black" stroke-width="0.5"/>
<path d="M57 68.5H14.7741C12.0328 68.5 9.92844 70.9302 10.3203 73.6433L21.8759 153.643C22.1957 155.857 24.0929 157.5 26.3297 157.5H57C59.4853 157.5 61.5 155.485 61.5 153V73C61.5 70.5147 59.4853 68.5 57 68.5Z" fill="#D9D9D9" stroke="#4E4E4E" stroke-opacity="0.2" stroke-linecap="square" stroke-linejoin="round" stroke-dasharray="6 6"/>
<path d="M21.5 94.75H56.5C56.9142 94.75 57.25 95.0858 57.25 95.5C57.25 95.9142 56.9142 96.25 56.5 96.25H21.5C21.0858 96.25 20.75 95.9142 20.75 95.5C20.75 95.0858 21.0858 94.75 21.5 94.75Z" fill="#D9D9D9" stroke="#4E4E4E" stroke-opacity="0.2" stroke-width="1.5" stroke-linecap="square" stroke-linejoin="round" stroke-dasharray="6 6"/>
<path d="M24.5 139.75H56.5C56.9142 139.75 57.25 140.086 57.25 140.5C57.25 140.914 56.9142 141.25 56.5 141.25H24.5C24.0858 141.25 23.75 140.914 23.75 140.5C23.75 140.086 24.0858 139.75 24.5 139.75Z" fill="#D9D9D9" stroke="#4E4E4E" stroke-opacity="0.2" stroke-width="1.5" stroke-linecap="square" stroke-linejoin="round" stroke-dasharray="6 6"/>
<path d="M21.5 109.75H56.5C56.9142 109.75 57.25 110.086 57.25 110.5C57.25 110.914 56.9142 111.25 56.5 111.25H21.5C21.0858 111.25 20.75 110.914 20.75 110.5C20.75 110.086 21.0858 109.75 21.5 109.75Z" fill="#D9D9D9" stroke="#4E4E4E" stroke-opacity="0.2" stroke-width="1.5" stroke-linecap="square" stroke-linejoin="round" stroke-dasharray="6 6"/>
<path d="M24.5 124.75H56.5C56.9142 124.75 57.25 125.086 57.25 125.5C57.25 125.914 56.9142 126.25 56.5 126.25H24.5C24.0858 126.25 23.75 125.914 23.75 125.5C23.75 125.086 24.0858 124.75 24.5 124.75Z" fill="#D9D9D9" stroke="#4E4E4E" stroke-opacity="0.2" stroke-width="1.5" stroke-linecap="square" stroke-linejoin="round" stroke-dasharray="6 6"/>
<path d="M19.5 80.75H56.5C56.9142 80.75 57.25 81.0858 57.25 81.5C57.25 81.9142 56.9142 82.25 56.5 82.25H19.5C19.0858 82.25 18.75 81.9142 18.75 81.5C18.75 81.0858 19.0858 80.75 19.5 80.75Z" fill="#D9D9D9" stroke="#4E4E4E" stroke-opacity="0.2" stroke-width="1.5" stroke-linecap="square" stroke-linejoin="round" stroke-dasharray="6 6"/>
<path d="M205 0.5H5C2.51472 0.5 0.5 2.51472 0.5 5V15C0.5 17.4853 2.51472 19.5 5 19.5H205C207.485 19.5 209.5 17.4853 209.5 15V5C209.5 2.51472 207.485 0.5 205 0.5Z" fill="#D9D9D9" stroke="black"/>
<path d="M17 7H11V13H17V7Z" fill="#D9D9D9" stroke="#4E4E4E" stroke-width="4"/>
<path d="M200 7H194V13H200V7Z" fill="#D9D9D9" stroke="#4E4E4E" stroke-width="4"/>
<path d="M188 9H23V12H188V9Z" fill="#D9D9D9" stroke="#4E4E4E" stroke-width="2"/>
<path d="M91.3137 78.5H144.686C148.719 78.5 151.778 82.1335 151.091 86.107L145.733 117.107C145.195 120.224 142.491 122.5 139.328 122.5H96.6717C93.509 122.5 90.8053 120.224 90.2667 117.107L84.9086 86.107C84.2219 82.1335 87.2813 78.5 91.3137 78.5Z" fill="#D9D9D9" stroke="black"/>
<path d="M138.182 88H97.8182C97.3663 88 97 88.2239 97 88.5C97 88.7761 97.3663 89 97.8182 89H138.182C138.634 89 139 88.7761 139 88.5C139 88.2239 138.634 88 138.182 88Z" fill="#D9D9D9" stroke="#4E4E4E" stroke-width="1.5"/>
<path d="M136.199 99H98.8014C98.3588 99 98 99.2239 98 99.5C98 99.7761 98.3588 100 98.8014 100H136.199C136.641 100 137 99.7761 137 99.5C137 99.2239 136.641 99 136.199 99Z" fill="#D9D9D9" stroke="#4E4E4E" stroke-width="1.5"/>
<path d="M135.194 111H100.806C100.361 111 100 111.224 100 111.5C100 111.776 100.361 112 100.806 112H135.194C135.639 112 136 111.776 136 111.5C136 111.224 135.639 111 135.194 111Z" fill="#D9D9D9" stroke="#4E4E4E" stroke-width="1.5"/>
</g>
<defs>
<clipPath id="clip0_1_2">
<rect width="210" height="158" fill="white"/>
</clipPath>
</defs>
</svg>
