<svg width="368" height="579" viewBox="0 0 368 579" fill="none" xmlns="http://www.w3.org/2000/svg">
<rect x="6.25" y="463.25" width="179.5" height="79.5" fill="#D9D9D9" stroke="black" stroke-width="0.5"/>
<rect x="6.25" y="443.25" width="179.5" height="19.5" fill="#D9D9D9" stroke="black" stroke-width="0.5"/>
<path d="M26 568V543H6V568" stroke="black" stroke-width="0.5"/>
<path d="M26 568C26 573.523 21.5228 578 16 578C10.4772 578 6 573.523 6 568" stroke="black" stroke-width="0.5"/>
<path d="M186 568V543H166V568" stroke="black" stroke-width="0.5"/>
<path d="M186 568C186 573.523 181.523 578 176 578C170.477 578 166 573.523 166 568" stroke="black" stroke-width="0.5"/>
<circle cx="16" cy="568" r="4.75" fill="#D9D9D9" stroke="black" stroke-width="0.5"/>
<circle cx="176" cy="568" r="4.75" fill="#D9D9D9" stroke="black" stroke-width="0.5"/>
<rect x="0.25" y="458.25" width="5.5" height="9.5" fill="#D9D9D9" stroke="black" stroke-width="0.5"/>
<path d="M0.36075 457.75L1.67325 454.25H5.75V457.75H0.36075ZM5.75 468.25V471.75H1.67325L0.36075 468.25H5.75Z" fill="#D9D9D9" stroke="black" stroke-width="0.5"/>
<rect x="-0.25" y="0.25" width="5.5" height="6.5" transform="matrix(-1 0 0 1 191.5 450)" fill="#D9D9D9" stroke="black" stroke-width="0.5"/>
<path d="M191.553 450.194L190.36 448.25H186.25V450.194H191.553ZM186.25 456.806V458.75H190.36L191.553 456.806H186.25Z" fill="#D9D9D9" stroke="black" stroke-width="0.5"/>
<mask id="path-13-inside-1_0_1" fill="white">
<path d="M200 452H192V455H200V452Z"/>
</mask>
<path d="M200 452H192V455H200V452Z" fill="#353535"/>
<path d="M200 452V451.5H200.5V452H200ZM192 452H191.5V451.5H192V452ZM192 455V455.5H191.5V455H192ZM200 455H200.5V455.5H200V455ZM200 452.5H192V451.5H200V452.5ZM192.5 452V455H191.5V452H192.5ZM192 454.5H200V455.5H192V454.5ZM199.5 455V452H200.5V455H199.5Z" fill="black" mask="url(#path-13-inside-1_0_1)"/>
<path d="M201.75 449.5C201.75 449.362 201.638 449.25 201.5 449.25H199.5C199.362 449.25 199.25 449.362 199.25 449.5V457.5C199.25 457.638 199.362 457.75 199.5 457.75H201.5C201.638 457.75 201.75 457.638 201.75 457.5V449.5Z" fill="#D9D9D9" stroke="black" stroke-width="0.5"/>
<rect x="178.15" y="445.15" width="4.7" height="4.7" rx="1.85" fill="#D9D9D9" stroke="black" stroke-width="0.3"/>
<path d="M26.4347 453.182L26.5028 451.307L24.9176 452.312L24.5085 451.597L26.179 450.727L24.5085 449.858L24.9176 449.142L26.5028 450.148L26.4347 448.273H27.2528L27.1847 450.148L28.7699 449.142L29.179 449.858L27.5085 450.727L29.179 451.597L28.7699 452.312L27.1847 451.307L27.2528 453.182H26.4347ZM30.4233 449.21V448.273H36.9688V449.21H34.2244V457H33.1676V449.21H30.4233ZM37.9382 457H36.8303L40.0348 448.273H41.1257L44.3303 457H43.2223L40.6143 449.653H40.5462L37.9382 457ZM38.3473 453.591H42.8132V454.528H38.3473V453.591ZM48.1942 448.273V457H47.1374V449.381H47.0863L44.9556 450.795V449.722L47.1374 448.273H48.1942ZM55.6303 450.455C55.5792 450.023 55.3718 449.688 55.0082 449.449C54.6445 449.21 54.1985 449.091 53.6701 449.091C53.2837 449.091 52.9457 449.153 52.6559 449.278C52.369 449.403 52.1445 449.575 51.9826 449.794C51.8235 450.013 51.744 450.261 51.744 450.54C51.744 450.773 51.7994 450.973 51.9102 451.141C52.0238 451.305 52.1687 451.443 52.3448 451.554C52.521 451.662 52.7056 451.751 52.8988 451.822C53.092 451.891 53.2695 451.946 53.4315 451.989L54.3178 452.227C54.5451 452.287 54.7979 452.369 55.0763 452.474C55.3576 452.58 55.6261 452.723 55.8817 452.905C56.1403 453.084 56.3533 453.314 56.521 453.595C56.6886 453.876 56.7724 454.222 56.7724 454.631C56.7724 455.102 56.6488 455.528 56.4016 455.909C56.1573 456.29 55.7994 456.592 55.3278 456.817C54.859 457.041 54.2894 457.153 53.619 457.153C52.994 457.153 52.4528 457.053 51.9954 456.851C51.5408 456.649 51.1829 456.368 50.9215 456.007C50.663 455.646 50.5167 455.227 50.4826 454.75H51.5735C51.6019 455.08 51.7127 455.352 51.9059 455.568C52.1019 455.781 52.3491 455.94 52.6474 456.045C52.9485 456.148 53.2724 456.199 53.619 456.199C54.0224 456.199 54.3846 456.134 54.7056 456.003C55.0266 455.869 55.2809 455.685 55.4684 455.449C55.6559 455.21 55.7496 454.932 55.7496 454.614C55.7496 454.324 55.6687 454.088 55.5067 453.906C55.3448 453.724 55.1317 453.577 54.8675 453.463C54.6033 453.349 54.3178 453.25 54.011 453.165L52.9371 452.858C52.2553 452.662 51.7156 452.382 51.3178 452.018C50.9201 451.655 50.7212 451.179 50.7212 450.591C50.7212 450.102 50.8533 449.676 51.1175 449.312C51.3846 448.946 51.7425 448.662 52.1914 448.46C52.6431 448.256 53.1474 448.153 53.7042 448.153C54.2667 448.153 54.7667 448.254 55.2042 448.456C55.6417 448.655 55.9883 448.928 56.244 449.274C56.5025 449.621 56.6388 450.014 56.6531 450.455H55.6303ZM61.2031 457H58.5099V448.273H61.3224C62.169 448.273 62.8935 448.447 63.4957 448.797C64.098 449.143 64.5597 449.642 64.8807 450.293C65.2017 450.94 65.3622 451.716 65.3622 452.619C65.3622 453.528 65.2003 454.311 64.8764 454.967C64.5526 455.621 64.081 456.124 63.4616 456.476C62.8423 456.825 62.0895 457 61.2031 457ZM59.5668 456.062H61.1349C61.8565 456.062 62.4545 455.923 62.929 455.645C63.4034 455.366 63.7571 454.97 63.9901 454.456C64.223 453.942 64.3395 453.33 64.3395 452.619C64.3395 451.915 64.2244 451.308 63.9943 450.8C63.7642 450.288 63.4205 449.896 62.9631 449.624C62.5057 449.348 61.9361 449.21 61.2543 449.21H59.5668V456.062ZM69.8281 457.119C69.1861 457.119 68.6392 456.945 68.1875 456.595C67.7358 456.243 67.3906 455.733 67.152 455.065C66.9134 454.395 66.794 453.585 66.794 452.636C66.794 451.693 66.9134 450.888 67.152 450.22C67.3935 449.55 67.7401 449.038 68.1918 448.686C68.6463 448.331 69.1918 448.153 69.8281 448.153C70.4645 448.153 71.0085 448.331 71.4602 448.686C71.9148 449.038 72.2614 449.55 72.5 450.22C72.7415 450.888 72.8622 451.693 72.8622 452.636C72.8622 453.585 72.7429 454.395 72.5043 455.065C72.2656 455.733 71.9205 456.243 71.4688 456.595C71.017 456.945 70.4702 457.119 69.8281 457.119ZM69.8281 456.182C70.4645 456.182 70.9588 455.875 71.3111 455.261C71.6634 454.648 71.8395 453.773 71.8395 452.636C71.8395 451.881 71.7585 451.237 71.5966 450.706C71.4375 450.175 71.2074 449.77 70.9062 449.491C70.608 449.213 70.2486 449.074 69.8281 449.074C69.1974 449.074 68.7045 449.385 68.3494 450.007C67.9943 450.626 67.8168 451.503 67.8168 452.636C67.8168 453.392 67.8963 454.034 68.0554 454.562C68.2145 455.091 68.4432 455.493 68.7415 455.768C69.0426 456.044 69.4048 456.182 69.8281 456.182ZM77.3281 457.119C76.6861 457.119 76.1392 456.945 75.6875 456.595C75.2358 456.243 74.8906 455.733 74.652 455.065C74.4134 454.395 74.294 453.585 74.294 452.636C74.294 451.693 74.4134 450.888 74.652 450.22C74.8935 449.55 75.2401 449.038 75.6918 448.686C76.1463 448.331 76.6918 448.153 77.3281 448.153C77.9645 448.153 78.5085 448.331 78.9602 448.686C79.4148 449.038 79.7614 449.55 80 450.22C80.2415 450.888 80.3622 451.693 80.3622 452.636C80.3622 453.585 80.2429 454.395 80.0043 455.065C79.7656 455.733 79.4205 456.243 78.9688 456.595C78.517 456.945 77.9702 457.119 77.3281 457.119ZM77.3281 456.182C77.9645 456.182 78.4588 455.875 78.8111 455.261C79.1634 454.648 79.3395 453.773 79.3395 452.636C79.3395 451.881 79.2585 451.237 79.0966 450.706C78.9375 450.175 78.7074 449.77 78.4062 449.491C78.108 449.213 77.7486 449.074 77.3281 449.074C76.6974 449.074 76.2045 449.385 75.8494 450.007C75.4943 450.626 75.3168 451.503 75.3168 452.636C75.3168 453.392 75.3963 454.034 75.5554 454.562C75.7145 455.091 75.9432 455.493 76.2415 455.768C76.5426 456.044 76.9048 456.182 77.3281 456.182ZM84.8281 457.119C84.1861 457.119 83.6392 456.945 83.1875 456.595C82.7358 456.243 82.3906 455.733 82.152 455.065C81.9134 454.395 81.794 453.585 81.794 452.636C81.794 451.693 81.9134 450.888 82.152 450.22C82.3935 449.55 82.7401 449.038 83.1918 448.686C83.6463 448.331 84.1918 448.153 84.8281 448.153C85.4645 448.153 86.0085 448.331 86.4602 448.686C86.9148 449.038 87.2614 449.55 87.5 450.22C87.7415 450.888 87.8622 451.693 87.8622 452.636C87.8622 453.585 87.7429 454.395 87.5043 455.065C87.2656 455.733 86.9205 456.243 86.4688 456.595C86.017 456.945 85.4702 457.119 84.8281 457.119ZM84.8281 456.182C85.4645 456.182 85.9588 455.875 86.3111 455.261C86.6634 454.648 86.8395 453.773 86.8395 452.636C86.8395 451.881 86.7585 451.237 86.5966 450.706C86.4375 450.175 86.2074 449.77 85.9062 449.491C85.608 449.213 85.2486 449.074 84.8281 449.074C84.1974 449.074 83.7045 449.385 83.3494 450.007C82.9943 450.626 82.8168 451.503 82.8168 452.636C82.8168 453.392 82.8963 454.034 83.0554 454.562C83.2145 455.091 83.4432 455.493 83.7415 455.768C84.0426 456.044 84.4048 456.182 84.8281 456.182ZM92.5497 448.273V457H91.4929V449.381H91.4418L89.3111 450.795V449.722L91.4929 448.273H92.5497ZM96.7472 453.182L96.8153 451.307L95.2301 452.312L94.821 451.597L96.4915 450.727L94.821 449.858L95.2301 449.142L96.8153 450.148L96.7472 448.273H97.5653L97.4972 450.148L99.0824 449.142L99.4915 449.858L97.821 450.727L99.4915 451.597L99.0824 452.312L97.4972 451.307L97.5653 453.182H96.7472Z" fill="black"/>
<path d="M183.502 189.144L151.291 495.995C150.922 499.51 147.765 502.151 144.239 501.894L133.044 501.078C129.519 500.821 126.96 497.763 127.329 494.247L159.541 187.396C159.547 187.341 159.597 187.3 159.652 187.304L183.412 189.036C183.468 189.04 183.508 189.088 183.502 189.144Z" stroke="black" stroke-width="1.2"/>
<circle cx="144" cy="491" r="2.5" fill="#D9D9D9" stroke="black"/>
<line x1="132.05" y1="456.341" x2="155.077" y2="458.355" stroke="black" stroke-width="0.5"/>
<line x1="132.061" y1="449.285" x2="155.98" y2="451.377" stroke="black"/>
<line x1="132.022" y1="441.751" x2="157.006" y2="443.937" stroke="black" stroke-width="0.5"/>
<line y1="-0.25" x2="23.9969" y2="-0.25" transform="matrix(0.997352 0.0727217 -0.104402 0.994535 141.153 363.454)" stroke="black" stroke-width="0.5"/>
<line y1="-0.25" x2="23.9969" y2="-0.25" transform="matrix(0.997352 0.0727217 -0.104402 0.994535 142.415 348.721)" stroke="black" stroke-width="0.5"/>
<line y1="-0.5" x2="23.9969" y2="-0.5" transform="matrix(0.997352 0.0727217 -0.104402 0.994535 141.153 356.088)" stroke="black"/>
<mask id="path-26-inside-2_0_1" fill="white">
<path d="M164 334.5C164 338.09 160.194 341 155.5 341C150.806 341 147 338.09 147 334.5C147 330.91 150.806 328 155.5 328C160.194 328 164 330.91 164 334.5ZM152.298 334.5C152.298 335.852 153.732 336.949 155.5 336.949C157.268 336.949 158.702 335.852 158.702 334.5C158.702 333.148 157.268 332.051 155.5 332.051C153.732 332.051 152.298 333.148 152.298 334.5Z"/>
</mask>
<path d="M164 334.5C164 338.09 160.194 341 155.5 341C150.806 341 147 338.09 147 334.5C147 330.91 150.806 328 155.5 328C160.194 328 164 330.91 164 334.5ZM152.298 334.5C152.298 335.852 153.732 336.949 155.5 336.949C157.268 336.949 158.702 335.852 158.702 334.5C158.702 333.148 157.268 332.051 155.5 332.051C153.732 332.051 152.298 333.148 152.298 334.5Z" fill="#D9D9D9" stroke="black" stroke-width="2" mask="url(#path-26-inside-2_0_1)"/>
<line y1="-0.25" x2="23.9969" y2="-0.25" transform="matrix(0.997352 0.0727217 -0.104402 0.994535 146.203 318.202)" stroke="black" stroke-width="0.5"/>
<path d="M136.733 402.918L128.666 398.637L135.67 389.881L138.627 391.342" stroke="black" stroke-width="0.5"/>
<path d="M135.65 396.5C135.65 396.779 135.5 397.059 135.204 397.281C134.908 397.502 134.484 397.65 134 397.65C133.516 397.65 133.092 397.502 132.796 397.281C132.5 397.059 132.35 396.779 132.35 396.5C132.35 396.221 132.5 395.941 132.796 395.719C133.092 395.498 133.516 395.35 134 395.35C134.484 395.35 134.908 395.498 135.204 395.719C135.5 395.941 135.65 396.221 135.65 396.5Z" fill="#D9D9D9" stroke="black" stroke-width="0.7"/>
<rect x="0.214922" y="0.26121" width="3.32863" height="3.51546" transform="matrix(0.998513 0.0545217 -0.138823 0.990317 139.444 349.25)" fill="#D9D9D9" stroke="black" stroke-width="0.5"/>
<path d="M139.882 349.036L140.693 347.976L143.169 348.111L143.016 349.207L139.882 349.036ZM142.389 353.678L142.235 354.774L139.759 354.639L139.255 353.507L142.389 353.678Z" fill="#D9D9D9" stroke="black" stroke-width="0.5"/>
<mask id="path-32-inside-3_0_1" fill="white">
<path d="M132.927 348.721L139.984 349.094L139.37 353.325L132.314 352.952L132.927 348.721Z"/>
</mask>
<path d="M132.927 348.721L139.984 349.094L139.37 353.325L132.314 352.952L132.927 348.721Z" fill="#353535"/>
<path d="M132.927 348.721L132.998 348.226L132.499 348.2L132.427 348.695L132.927 348.721ZM139.984 349.094L140.483 349.12L140.555 348.625L140.055 348.599L139.984 349.094ZM139.37 353.325L139.299 353.82L139.798 353.846L139.87 353.352L139.37 353.325ZM132.314 352.952L131.814 352.926L131.743 353.421L132.242 353.447L132.314 352.952ZM132.855 349.216L139.912 349.589L140.055 348.599L132.998 348.226L132.855 349.216ZM139.484 349.067L138.871 353.299L139.87 353.352L140.483 349.12L139.484 349.067ZM139.442 352.83L132.385 352.458L132.242 353.447L139.299 353.82L139.442 352.83ZM132.813 352.979L133.426 348.747L132.427 348.695L131.814 352.926L132.813 352.979Z" fill="black" mask="url(#path-32-inside-3_0_1)"/>
<mask id="path-34-inside-4_0_1" fill="white">
<path d="M130.586 347.867C130.601 347.757 130.704 347.673 130.814 347.679L133.458 347.819C133.568 347.825 133.644 347.918 133.629 348.027L132.86 353.332C132.844 353.441 132.742 353.525 132.632 353.519L129.988 353.38C129.878 353.374 129.801 353.281 129.817 353.171L130.586 347.867Z"/>
</mask>
<path d="M130.586 347.867C130.601 347.757 130.704 347.673 130.814 347.679L133.458 347.819C133.568 347.825 133.644 347.918 133.629 348.027L132.86 353.332C132.844 353.441 132.742 353.525 132.632 353.519L129.988 353.38C129.878 353.374 129.801 353.281 129.817 353.171L130.586 347.867Z" fill="#D9D9D9"/>
<path d="M130.742 348.174L133.386 348.314L133.529 347.324L130.886 347.184L130.742 348.174ZM133.129 348.001L132.361 353.306L133.359 353.358L134.128 348.054L133.129 348.001ZM132.703 353.025L130.06 352.885L129.916 353.875L132.56 354.014L132.703 353.025ZM130.316 353.198L131.085 347.893L130.086 347.84L129.318 353.145L130.316 353.198ZM130.06 352.885C130.225 352.894 130.34 353.034 130.316 353.198L129.318 353.145C129.262 353.528 129.53 353.854 129.916 353.875L130.06 352.885ZM132.361 353.306C132.384 353.142 132.538 353.016 132.703 353.025L132.56 354.014C132.946 354.035 133.304 353.741 133.359 353.358L132.361 353.306ZM133.386 348.314C133.22 348.305 133.106 348.165 133.129 348.001L134.128 348.054C134.183 347.671 133.915 347.344 133.529 347.324L133.386 348.314ZM130.886 347.184C130.5 347.164 130.142 347.458 130.086 347.84L131.085 347.893C131.061 348.057 130.908 348.183 130.742 348.174L130.886 347.184Z" fill="black" mask="url(#path-34-inside-4_0_1)"/>
<path d="M140.623 347.642L139.831 349.147L138.738 349.147L151.344 227.798L152.514 227.798L152.517 227.698L152.514 227.798L153.668 227.798L140.623 347.642ZM138.287 353.389L139.983 353.547L136.006 390.241L134.332 391.636L138.287 353.389Z" stroke="black" stroke-width="0.2"/>
<path d="M153.775 227.403L147.466 213.732L146.199 213.732L144.941 213.732L151.25 227.404" stroke="black" stroke-width="0.2"/>
<path d="M146.922 194.023L145.166 210.751L146.322 210.752L147.477 210.752L149.437 194.206" stroke="black" stroke-width="0.4"/>
<path d="M149.378 194.532L160.37 142.577L157.883 142.212L146.891 194.166" stroke="black" stroke-width="0.4"/>
<rect x="158.2" y="131.2" width="2.6" height="12.6" rx="0.8" fill="#454545" stroke="black" stroke-width="0.4"/>
<path d="M158 211H150H142V215H157.333" stroke="black" stroke-width="0.3"/>
<path d="M147.9 213.5C147.9 213.598 147.867 213.664 147.811 213.715C147.752 213.769 147.659 213.811 147.53 213.84C147.272 213.899 146.917 213.9 146.527 213.9C146.137 213.9 145.768 213.899 145.496 213.84C145.36 213.81 145.26 213.768 145.195 213.713C145.134 213.661 145.1 213.596 145.1 213.5C145.1 213.404 145.134 213.339 145.195 213.287C145.26 213.232 145.36 213.19 145.496 213.16C145.768 213.101 146.137 213.1 146.527 213.1C146.917 213.1 147.272 213.101 147.53 213.16C147.659 213.189 147.752 213.231 147.811 213.285C147.867 213.336 147.9 213.402 147.9 213.5Z" fill="#D9D9D9" stroke="black" stroke-width="0.2"/>
<path d="M182 214H170H165.81C164.641 214 163.508 213.59 162.609 212.841L158 209" stroke="black" stroke-width="0.5"/>
<path d="M161.054 187.081L161.053 187.081C161.075 187.064 161.101 187.046 161.132 187.028C161.266 186.947 161.471 186.868 161.745 186.795C162.292 186.65 163.082 186.539 164.061 186.467C166.016 186.324 168.7 186.343 171.648 186.558C174.596 186.773 177.242 187.143 179.138 187.566C180.088 187.778 180.842 188.003 181.351 188.225C181.606 188.336 181.791 188.443 181.907 188.543C181.934 188.566 181.956 188.587 181.973 188.607C181.836 188.604 181.638 188.6 181.385 188.593C180.86 188.58 180.098 188.558 179.152 188.522C177.26 188.451 174.63 188.326 171.679 188.111C168.729 187.896 166.016 187.631 164.041 187.42C163.054 187.315 162.251 187.223 161.695 187.158C161.417 187.125 161.2 187.099 161.054 187.081Z" fill="#D9D9D9" stroke="black" stroke-width="0.3"/>
<path d="M209.521 143.382L209.521 143.382L209.519 143.389L203.159 166.037C202.84 167.174 201.972 168.095 200.849 168.486L195.96 170.19L195.96 170.19L195.948 170.194L188.372 173.035L188.363 173.039L188.355 173.042L181.361 175.957C180.926 176.138 180.521 176.384 180.158 176.686L178.74 177.868C177.836 178.621 177.248 179.684 177.099 180.834L176.17 188.013C176.134 188.29 175.84 188.462 175.585 188.356C175.449 188.299 175.303 188.264 175.154 188.253L168.537 187.751C168.337 187.736 168.135 187.769 167.948 187.847C167.776 187.919 167.593 187.792 167.603 187.609L168.131 177.968C168.171 177.23 168.446 176.516 168.915 175.93L169.897 174.702C170.308 174.189 170.851 173.794 171.465 173.563L184.365 168.707L194.297 165.196C195.687 164.704 196.773 163.581 197.21 162.181L199.716 154.167L199.716 154.167L199.717 154.161L202.873 143.641L202.874 143.638L205.705 134.672C205.829 134.28 206.197 134.01 206.606 134.01C206.688 134.01 206.77 134.021 206.848 134.043L208.559 134.518L208.574 134.522L208.59 134.526L210.985 135.025C211.042 135.036 211.097 135.053 211.149 135.075C211.574 135.252 211.791 135.718 211.659 136.166L209.521 143.382Z" stroke="black"/>
<path d="M223.7 87.3284L223.704 87.3312L227.874 90.1787C227.897 90.1948 227.919 90.2128 227.939 90.2328L232.047 94.361L238.806 101.153C238.867 101.215 238.908 101.292 238.925 101.378L239.963 106.644C239.98 106.73 239.971 106.821 239.939 106.907L238.368 110.983C238.352 111.025 238.331 111.064 238.304 111.101L214.917 143.658C214.79 143.835 214.566 143.925 214.358 143.882L198.441 140.62C198.208 140.572 198.055 140.37 198.076 140.138L199.32 126.344C199.327 126.265 199.328 126.187 199.322 126.109L198.193 111.748C198.184 111.631 198.16 111.517 198.121 111.408L193.124 97.2164C193.098 97.1448 193.067 97.0756 193.03 97.0096L189.065 89.958L189.059 89.9481L189.053 89.9385L184.061 82.0558C183.944 81.8705 183.981 81.6224 184.151 81.4547L187.925 77.7304C188.024 77.6327 188.157 77.5741 188.294 77.5677L196.62 77.1785C196.645 77.1774 196.67 77.178 196.695 77.1804L206.668 78.14C206.725 78.1454 206.78 78.1601 206.83 78.1834L212.4 80.7676L218.047 83.3875C218.072 83.399 218.096 83.4125 218.118 83.428L223.7 87.3284Z" fill="#D9D9D9" stroke="black"/>
<path d="M176.633 126.938L179.907 127.176L175.014 172.271L171.748 173.477L176.633 126.938Z" fill="#D9D9D9" stroke="black" stroke-width="0.5"/>
<rect x="177.2" y="116.2" width="2.6" height="12.6" rx="0.8" fill="#454545" stroke="black" stroke-width="0.4"/>
<path d="M41.7202 166H39.5043L45.9134 148.545H48.0952L54.5043 166H52.2884L47.0724 151.307H46.9361L41.7202 166ZM42.5384 159.182H51.4702V161.057H42.5384V159.182Z" fill="black"/>
<path d="M41.3089 121V103.545H47.4112C48.6271 103.545 49.63 103.756 50.4197 104.176C51.2095 104.591 51.7976 105.151 52.1839 105.855C52.5703 106.554 52.7635 107.33 52.7635 108.182C52.7635 108.932 52.63 109.551 52.3629 110.04C52.1016 110.528 51.755 110.915 51.3232 111.199C50.897 111.483 50.4339 111.693 49.9339 111.83V112C50.468 112.034 51.005 112.222 51.5447 112.562C52.0845 112.903 52.5362 113.392 52.8999 114.028C53.2635 114.665 53.4453 115.443 53.4453 116.364C53.4453 117.239 53.2464 118.026 52.8487 118.724C52.451 119.423 51.8232 119.977 50.9652 120.386C50.1072 120.795 48.9908 121 47.6158 121H41.3089ZM43.4226 119.125H47.6158C48.9964 119.125 49.9766 118.858 50.5561 118.324C51.1413 117.784 51.4339 117.131 51.4339 116.364C51.4339 115.773 51.2834 115.227 50.9822 114.727C50.6811 114.222 50.2521 113.818 49.6953 113.517C49.1385 113.21 48.4794 113.057 47.718 113.057H43.4226V119.125ZM43.4226 111.216H47.343C47.9794 111.216 48.5533 111.091 49.0646 110.841C49.5817 110.591 49.9908 110.239 50.2919 109.784C50.5987 109.33 50.7521 108.795 50.7521 108.182C50.7521 107.415 50.4851 106.764 49.951 106.23C49.4169 105.69 48.5703 105.42 47.4112 105.42H43.4226V111.216Z" fill="black"/>
<path d="M347.707 55.7071C348.098 55.3166 348.098 54.6834 347.707 54.2929L341.343 47.9289C340.953 47.5384 340.319 47.5384 339.929 47.9289C339.538 48.3195 339.538 48.9526 339.929 49.3431L345.586 55L339.929 60.6569C339.538 61.0474 339.538 61.6805 339.929 62.0711C340.319 62.4616 340.953 62.4616 341.343 62.0711L347.707 55.7071ZM247 56H347V54H247V56Z" fill="black"/>
<path d="M58.2929 55.7071C57.9024 55.3166 57.9024 54.6834 58.2929 54.2929L64.6569 47.9289C65.0474 47.5384 65.6805 47.5384 66.0711 47.9289C66.4616 48.3195 66.4616 48.9526 66.0711 49.3431L60.4142 55L66.0711 60.6569C66.4616 61.0474 66.4616 61.6805 66.0711 62.0711C65.6805 62.4616 65.0474 62.4616 64.6569 62.0711L58.2929 55.7071ZM159 56H59V54H159V56Z" fill="black"/>
<path d="M206.365 0.545454V18H204.251V2.76136H204.149L199.888 5.59091V3.44318L204.251 0.545454H206.365Z" fill="black"/>
<path d="M362.064 18.2386C360.939 18.2386 359.936 18.0455 359.055 17.6591C358.18 17.2727 357.484 16.7358 356.967 16.0483C356.456 15.3551 356.178 14.5511 356.132 13.6364H358.28C358.325 14.1989 358.518 14.6847 358.859 15.0938C359.2 15.4972 359.646 15.8097 360.197 16.0312C360.749 16.2528 361.359 16.3636 362.03 16.3636C362.78 16.3636 363.445 16.233 364.024 15.9716C364.604 15.7102 365.058 15.3466 365.388 14.8807C365.717 14.4148 365.882 13.875 365.882 13.2614C365.882 12.6193 365.723 12.054 365.405 11.5653C365.087 11.071 364.621 10.6847 364.007 10.4062C363.393 10.1278 362.643 9.98864 361.757 9.98864H360.359V8.11364H361.757C362.45 8.11364 363.058 7.98864 363.581 7.73864C364.109 7.48864 364.521 7.13636 364.817 6.68182C365.118 6.22727 365.268 5.69318 365.268 5.07954C365.268 4.48864 365.138 3.97443 364.876 3.53693C364.615 3.09943 364.246 2.75852 363.768 2.5142C363.297 2.26989 362.74 2.14773 362.098 2.14773C361.496 2.14773 360.928 2.25852 360.393 2.48011C359.865 2.69602 359.433 3.01136 359.098 3.42614C358.763 3.83523 358.581 4.32955 358.553 4.90909H356.507C356.541 3.99432 356.817 3.19318 357.334 2.50568C357.851 1.8125 358.527 1.27273 359.362 0.886364C360.203 0.5 361.126 0.306818 362.132 0.306818C363.212 0.306818 364.138 0.525568 364.911 0.963068C365.683 1.39489 366.277 1.96591 366.692 2.67614C367.107 3.38636 367.314 4.15341 367.314 4.97727C367.314 5.96023 367.055 6.7983 366.538 7.49148C366.027 8.18466 365.331 8.66477 364.45 8.93182V9.06818C365.553 9.25 366.413 9.71875 367.033 10.4744C367.652 11.2244 367.962 12.1534 367.962 13.2614C367.962 14.2102 367.703 15.0625 367.186 15.8182C366.675 16.5682 365.976 17.1591 365.089 17.5909C364.203 18.0227 363.195 18.2386 362.064 18.2386Z" fill="black"/>
<path d="M41.5412 18V16.4659L47.3026 10.1591C47.9787 9.42045 48.5355 8.77841 48.973 8.23295C49.4105 7.68182 49.7344 7.16477 49.9446 6.68182C50.1605 6.19318 50.2685 5.68182 50.2685 5.14773C50.2685 4.53409 50.1207 4.00284 49.8253 3.55398C49.5355 3.10511 49.1378 2.75852 48.6321 2.5142C48.1264 2.26989 47.5582 2.14773 46.9276 2.14773C46.2571 2.14773 45.6719 2.28693 45.1719 2.56534C44.6776 2.83807 44.294 3.22159 44.0213 3.71591C43.7543 4.21023 43.6207 4.78977 43.6207 5.45454H41.6094C41.6094 4.43182 41.8452 3.53409 42.3168 2.76136C42.7884 1.98864 43.4304 1.38636 44.2429 0.954545C45.0611 0.522727 45.9787 0.306818 46.9957 0.306818C48.0185 0.306818 48.9247 0.522727 49.7145 0.954545C50.5043 1.38636 51.1236 1.96875 51.5724 2.7017C52.0213 3.43466 52.2457 4.25 52.2457 5.14773C52.2457 5.78977 52.1293 6.41761 51.8963 7.03125C51.669 7.6392 51.2713 8.31818 50.7031 9.06818C50.1406 9.8125 49.3594 10.7216 48.3594 11.7955L44.4389 15.9886V16.125H52.5526V18H41.5412Z" fill="black"/>
<path d="M159.245 121.66C159.669 121.306 159.725 120.675 159.371 120.252L153.598 113.347C153.244 112.923 152.613 112.867 152.19 113.221C151.766 113.576 151.71 114.206 152.064 114.63L157.195 120.767L151.058 125.899C150.634 126.253 150.578 126.884 150.932 127.307C151.286 127.731 151.917 127.787 152.34 127.433L159.245 121.66ZM58.9111 112.996L158.515 121.889L158.693 119.897L59.0889 111.004L58.9111 112.996Z" fill="black"/>
<path d="M150.759 150.651C151.119 150.231 151.07 149.6 150.651 149.241L143.817 143.384C143.398 143.024 142.767 143.073 142.407 143.492C142.048 143.911 142.097 144.543 142.516 144.902L148.59 150.108L143.384 156.183C143.024 156.602 143.073 157.233 143.492 157.593C143.911 157.952 144.543 157.903 144.902 157.484L150.759 150.651ZM59.0767 157.997L150.077 150.997L149.923 149.003L58.9233 156.003L59.0767 157.997Z" fill="black"/>
</svg>
