<svg width="386" height="618" viewBox="0 0 386 618" fill="none" xmlns="http://www.w3.org/2000/svg">
<g clip-path="url(#clip0_1_2)">
<path d="M205.75 502.808H26.25V582.308H205.75V502.808Z" fill="#D9D9D9" stroke="black" stroke-width="0.5"/>
<path d="M205.75 482.808H26.25V502.308H205.75V482.808Z" fill="#D9D9D9" stroke="black" stroke-width="0.5"/>
<path d="M46 607.558V582.558H26V607.558" stroke="black" stroke-width="0.5"/>
<path d="M46 607.558C46 613.081 41.5228 617.558 36 617.558C30.4772 617.558 26 613.081 26 607.558" stroke="black" stroke-width="0.5"/>
<path d="M206 607.558V582.558H186V607.558" stroke="black" stroke-width="0.5"/>
<path d="M206 607.558C206 613.081 201.523 617.558 196 617.558C190.477 617.558 186 613.081 186 607.558" stroke="black" stroke-width="0.5"/>
<path d="M36 612.308C38.6234 612.308 40.75 610.181 40.75 607.558C40.75 604.935 38.6234 602.808 36 602.808C33.3766 602.808 31.25 604.935 31.25 607.558C31.25 610.181 33.3766 612.308 36 612.308Z" fill="#D9D9D9" stroke="black" stroke-width="0.5"/>
<path d="M196 612.308C198.623 612.308 200.75 610.181 200.75 607.558C200.75 604.935 198.623 602.808 196 602.808C193.377 602.808 191.25 604.935 191.25 607.558C191.25 610.181 193.377 612.308 196 612.308Z" fill="#D9D9D9" stroke="black" stroke-width="0.5"/>
<path d="M25.75 497.808H20.25V507.308H25.75V497.808Z" fill="#D9D9D9" stroke="black" stroke-width="0.5"/>
<path d="M20.3608 497.308L21.6733 493.808H25.75V497.308H20.3608ZM25.75 507.808V511.308H21.6732L20.3608 507.808H25.75Z" fill="#D9D9D9" stroke="black" stroke-width="0.5"/>
<path d="M206.25 490.25H211.75V496.75H206.25V490.25Z" fill="#D9D9D9" stroke="black" stroke-width="0.5"/>
<path d="M211.553 490.194L210.36 488.25H206.25V490.194H211.553ZM206.25 496.806V498.75H210.36L211.553 496.806H206.25Z" fill="#D9D9D9" stroke="black" stroke-width="0.5"/>
<path d="M5 499H20V507H5V499Z" fill="#353535"/>
<mask id="mask0_1_2" style="mask-type:luminance" maskUnits="userSpaceOnUse" x="5" y="499" width="15" height="8">
<path d="M5 499H20V507H5V499Z" fill="white"/>
</mask>
<g mask="url(#mask0_1_2)">
<path d="M5 499V498.5H4.5V499H5ZM20 499H20.5V498.5H20V499ZM20 507V507.5H20.5V507H20ZM5 507H4.5V507.5H5V507ZM5 499.5H20V498.5H5V499.5ZM19.5 499V507H20.5V499H19.5ZM20 506.5H5V507.5H20V506.5ZM5.5 507V499H4.5V507H5.5Z" fill="black"/>
</g>
<path d="M0 496C0 495.448 0.447715 495 1 495H4C4.55228 495 5 495.448 5 496V509C5 509.552 4.55228 510 4 510H1C0.447715 510 0 509.552 0 509V496Z" fill="#D9D9D9"/>
<mask id="mask1_1_2" style="mask-type:luminance" maskUnits="userSpaceOnUse" x="0" y="495" width="5" height="15">
<path d="M0 496C0 495.448 0.447715 495 1 495H4C4.55228 495 5 495.448 5 496V509C5 509.552 4.55228 510 4 510H1C0.447715 510 0 509.552 0 509V496Z" fill="white"/>
</mask>
<g mask="url(#mask1_1_2)">
<path d="M1 495.5H4V494.5H1V495.5ZM4.5 496V509H5.5V496H4.5ZM4 509.5H1V510.5H4V509.5ZM0.5 509V496H-0.5V509H0.5ZM1 509.5C0.723858 509.5 0.5 509.276 0.5 509H-0.5C-0.5 509.828 0.171573 510.5 1 510.5V509.5ZM4.5 509C4.5 509.276 4.27614 509.5 4 509.5V510.5C4.82843 510.5 5.5 509.828 5.5 509H4.5ZM4 495.5C4.27614 495.5 4.5 495.724 4.5 496H5.5C5.5 495.172 4.82843 494.5 4 494.5V495.5ZM1 494.5C0.171573 494.5 -0.5 495.172 -0.5 496H0.5C0.5 495.724 0.723858 495.5 1 495.5V494.5Z" fill="black"/>
</g>
<path d="M220 491.558H212V494.558H220V491.558Z" fill="#353535"/>
<mask id="mask2_1_2" style="mask-type:luminance" maskUnits="userSpaceOnUse" x="212" y="491" width="8" height="4">
<path d="M220 491.558H212V494.558H220V491.558Z" fill="white"/>
</mask>
<g mask="url(#mask2_1_2)">
<path d="M220 491.558V491.058H220.5V491.558H220ZM212 491.558H211.5V491.058H212V491.558ZM212 494.558V495.058H211.5V494.558H212ZM220 494.558H220.5V495.058H220V494.558ZM220 492.058H212V491.058H220V492.058ZM212.5 491.558V494.558H211.5V491.558H212.5ZM212 494.058H220V495.058H212V494.058ZM219.5 494.558V491.558H220.5V494.558H219.5Z" fill="black"/>
</g>
<path d="M221.75 489.058C221.75 488.92 221.638 488.808 221.5 488.808H219.5C219.362 488.808 219.25 488.92 219.25 489.058V497.293C219.25 497.516 219.519 497.627 219.677 497.47L221.677 495.47C221.724 495.423 221.75 495.359 221.75 495.293V493.058V489.058Z" fill="#D9D9D9" stroke="black" stroke-width="0.5"/>
<path d="M201 484.708H200C198.978 484.708 198.15 485.536 198.15 486.558V487.558C198.15 488.58 198.978 489.408 200 489.408H201C202.022 489.408 202.85 488.58 202.85 487.558V486.558C202.85 485.536 202.022 484.708 201 484.708Z" fill="#D9D9D9" stroke="black" stroke-width="0.3"/>
<path d="M36.9347 492.74L37.0028 490.865L35.4176 491.87L35.0085 491.155L36.679 490.285L35.0085 489.416L35.4176 488.7L37.0028 489.706L36.9347 487.831H37.7528L37.6847 489.706L39.2699 488.7L39.679 489.416L38.0085 490.285L39.679 491.155L39.2699 491.87L37.6847 490.865L37.7528 492.74H36.9347ZM40.9233 488.768V487.831H47.4688V488.768H44.7244V496.558H43.6676V488.768H40.9233ZM48.4382 496.558H47.3303L50.5348 487.831H51.6257L54.8303 496.558H53.7223L51.1143 489.211H51.0462L48.4382 496.558ZM48.8473 493.149H53.3132V494.086H48.8473V493.149ZM58.6942 487.831V496.558H57.6374V488.939H57.5863L55.4556 490.353V489.28L57.6374 487.831H58.6942ZM66.1303 490.012C66.0792 489.581 65.8718 489.245 65.5082 489.007C65.1445 488.768 64.6985 488.649 64.1701 488.649C63.7837 488.649 63.4457 488.711 63.1559 488.836C62.869 488.961 62.6445 489.133 62.4826 489.352C62.3235 489.571 62.244 489.819 62.244 490.098C62.244 490.331 62.2994 490.531 62.4102 490.699C62.5238 490.863 62.6687 491.001 62.8448 491.112C63.021 491.22 63.2056 491.309 63.3988 491.38C63.592 491.449 63.7695 491.504 63.9315 491.547L64.8178 491.785C65.0451 491.845 65.2979 491.927 65.5763 492.032C65.8576 492.137 66.1261 492.281 66.3817 492.463C66.6403 492.642 66.8533 492.872 67.021 493.153C67.1886 493.434 67.2724 493.78 67.2724 494.189C67.2724 494.66 67.1488 495.086 66.9016 495.467C66.6573 495.848 66.2994 496.15 65.8278 496.375C65.359 496.599 64.7894 496.711 64.119 496.711C63.494 496.711 62.9528 496.61 62.4954 496.409C62.0408 496.207 61.6829 495.926 61.4215 495.565C61.163 495.204 61.0167 494.785 60.9826 494.308H62.0735C62.1019 494.637 62.2127 494.91 62.4059 495.126C62.6019 495.339 62.8491 495.498 63.1474 495.603C63.4485 495.706 63.7724 495.757 64.119 495.757C64.5224 495.757 64.8846 495.691 65.2056 495.561C65.5266 495.427 65.7809 495.243 65.9684 495.007C66.1559 494.768 66.2496 494.49 66.2496 494.172C66.2496 493.882 66.1687 493.646 66.0067 493.464C65.8448 493.282 65.6317 493.135 65.3675 493.021C65.1033 492.907 64.8178 492.808 64.511 492.723L63.4371 492.416C62.7553 492.22 62.2156 491.94 61.8178 491.576C61.4201 491.213 61.2212 490.737 61.2212 490.149C61.2212 489.66 61.3533 489.234 61.6175 488.87C61.8846 488.504 62.2425 488.22 62.6914 488.018C63.1431 487.814 63.6474 487.711 64.2042 487.711C64.7667 487.711 65.2667 487.812 65.7042 488.014C66.1417 488.213 66.4883 488.485 66.744 488.832C67.0025 489.179 67.1388 489.572 67.1531 490.012H66.1303ZM71.7031 496.558H69.0099V487.831H71.8224C72.669 487.831 73.3935 488.005 73.9957 488.355C74.598 488.701 75.0597 489.2 75.3807 489.851C75.7017 490.498 75.8622 491.274 75.8622 492.177C75.8622 493.086 75.7003 493.869 75.3764 494.525C75.0526 495.179 74.581 495.682 73.9616 496.034C73.3423 496.383 72.5895 496.558 71.7031 496.558ZM70.0668 495.62H71.6349C72.3565 495.62 72.9545 495.481 73.429 495.203C73.9034 494.924 74.2571 494.528 74.4901 494.014C74.723 493.5 74.8395 492.887 74.8395 492.177C74.8395 491.473 74.7244 490.866 74.4943 490.358C74.2642 489.846 73.9205 489.454 73.4631 489.182C73.0057 488.906 72.4361 488.768 71.7543 488.768H70.0668V495.62ZM80.3281 496.677C79.6861 496.677 79.1392 496.503 78.6875 496.153C78.2358 495.801 77.8906 495.291 77.652 494.623C77.4134 493.953 77.294 493.143 77.294 492.194C77.294 491.251 77.4134 490.446 77.652 489.778C77.8935 489.108 78.2401 488.596 78.6918 488.244C79.1463 487.889 79.6918 487.711 80.3281 487.711C80.9645 487.711 81.5085 487.889 81.9602 488.244C82.4148 488.596 82.7614 489.108 83 489.778C83.2415 490.446 83.3622 491.251 83.3622 492.194C83.3622 493.143 83.2429 493.953 83.0043 494.623C82.7656 495.291 82.4205 495.801 81.9688 496.153C81.517 496.503 80.9702 496.677 80.3281 496.677ZM80.3281 495.74C80.9645 495.74 81.4588 495.433 81.8111 494.819C82.1634 494.206 82.3395 493.331 82.3395 492.194C82.3395 491.439 82.2585 490.795 82.0966 490.264C81.9375 489.733 81.7074 489.328 81.4062 489.049C81.108 488.771 80.7486 488.632 80.3281 488.632C79.6974 488.632 79.2045 488.943 78.8494 489.565C78.4943 490.184 78.3168 491.061 78.3168 492.194C78.3168 492.95 78.3963 493.592 78.5554 494.12C78.7145 494.649 78.9432 495.051 79.2415 495.326C79.5426 495.602 79.9048 495.74 80.3281 495.74ZM87.8281 496.677C87.1861 496.677 86.6392 496.503 86.1875 496.153C85.7358 495.801 85.3906 495.291 85.152 494.623C84.9134 493.953 84.794 493.143 84.794 492.194C84.794 491.251 84.9134 490.446 85.152 489.778C85.3935 489.108 85.7401 488.596 86.1918 488.244C86.6463 487.889 87.1918 487.711 87.8281 487.711C88.4645 487.711 89.0085 487.889 89.4602 488.244C89.9148 488.596 90.2614 489.108 90.5 489.778C90.7415 490.446 90.8622 491.251 90.8622 492.194C90.8622 493.143 90.7429 493.953 90.5043 494.623C90.2656 495.291 89.9205 495.801 89.4688 496.153C89.017 496.503 88.4702 496.677 87.8281 496.677ZM87.8281 495.74C88.4645 495.74 88.9588 495.433 89.3111 494.819C89.6634 494.206 89.8395 493.331 89.8395 492.194C89.8395 491.439 89.7585 490.795 89.5966 490.264C89.4375 489.733 89.2074 489.328 88.9062 489.049C88.608 488.771 88.2486 488.632 87.8281 488.632C87.1974 488.632 86.7045 488.943 86.3494 489.565C85.9943 490.184 85.8168 491.061 85.8168 492.194C85.8168 492.95 85.8963 493.592 86.0554 494.12C86.2145 494.649 86.4432 495.051 86.7415 495.326C87.0426 495.602 87.4048 495.74 87.8281 495.74ZM95.3281 496.677C94.6861 496.677 94.1392 496.503 93.6875 496.153C93.2358 495.801 92.8906 495.291 92.652 494.623C92.4134 493.953 92.294 493.143 92.294 492.194C92.294 491.251 92.4134 490.446 92.652 489.778C92.8935 489.108 93.2401 488.596 93.6918 488.244C94.1463 487.889 94.6918 487.711 95.3281 487.711C95.9645 487.711 96.5085 487.889 96.9602 488.244C97.4148 488.596 97.7614 489.108 98 489.778C98.2415 490.446 98.3622 491.251 98.3622 492.194C98.3622 493.143 98.2429 493.953 98.0043 494.623C97.7656 495.291 97.4205 495.801 96.9688 496.153C96.517 496.503 95.9702 496.677 95.3281 496.677ZM95.3281 495.74C95.9645 495.74 96.4588 495.433 96.8111 494.819C97.1634 494.206 97.3395 493.331 97.3395 492.194C97.3395 491.439 97.2585 490.795 97.0966 490.264C96.9375 489.733 96.7074 489.328 96.4062 489.049C96.108 488.771 95.7486 488.632 95.3281 488.632C94.6974 488.632 94.2045 488.943 93.8494 489.565C93.4943 490.184 93.3168 491.061 93.3168 492.194C93.3168 492.95 93.3963 493.592 93.5554 494.12C93.7145 494.649 93.9432 495.051 94.2415 495.326C94.5426 495.602 94.9048 495.74 95.3281 495.74ZM103.05 487.831V496.558H101.993V488.939H101.942L99.8111 490.353V489.28L101.993 487.831H103.05ZM107.247 492.74L107.315 490.865L105.73 491.87L105.321 491.155L106.991 490.285L105.321 489.416L105.73 488.7L107.315 489.706L107.247 487.831H108.065L107.997 489.706L109.582 488.7L109.991 489.416L108.321 490.285L109.991 491.155L109.582 491.87L107.997 490.865L108.065 492.74H107.247Z" fill="black"/>
<path d="M206 482.558V480.558C206 479.453 205.105 478.558 204 478.558H179.5M26 482.558V480.558C26 479.453 26.8954 478.558 28 478.558H116H138.5H149" stroke="black" stroke-width="0.5"/>
<path d="M205.789 542.533L242.428 498.868C243.493 497.599 243.327 495.707 242.058 494.642L232.865 486.928C231.596 485.863 229.704 486.029 228.639 487.298L211.284 507.981L205.789 514.2" stroke="black"/>
<path d="M237.6 495.75C237.6 498.133 235.56 500.1 233 500.1C230.44 500.1 228.4 498.133 228.4 495.75C228.4 493.367 230.44 491.4 233 491.4C235.56 491.4 237.6 493.367 237.6 495.75Z" fill="#D9D9D9" stroke="black" stroke-width="0.8"/>
<path d="M180 483V471.381C180 470.84 179.26 470.684 179.042 471.18L177.422 474.867C177.253 475.252 176.712 475.269 176.52 474.895L174.411 470.798C174.232 470.45 173.739 470.434 173.538 470.77L170.929 475.114C170.734 475.437 170.266 475.437 170.071 475.114L167.429 470.714C167.234 470.39 166.766 470.39 166.571 470.714L163.877 475.2C163.696 475.502 163.268 475.527 163.053 475.248L159.375 470.486C159.182 470.235 158.806 470.226 158.6 470.466L154.379 475.385C154.18 475.618 153.82 475.618 153.621 475.385L149.879 471.025C149.577 470.673 149 470.887 149 471.351V483" stroke="black" stroke-width="0.7"/>
<path d="M158 321L159 470.336M180 321V471" stroke="black"/>
<path d="M180 321.123C186.834 314.289 187.957 303.209 181.123 296.374C174.289 289.54 163.209 289.54 156.374 296.374C149.54 303.209 151.166 314.289 158 321.123" stroke="black"/>
<path d="M160.25 456C160.25 455.586 160.586 455.25 161 455.25H173.5H180.074C180.161 455.25 180.248 455.265 180.33 455.295L182.706 456.159C182.809 456.197 182.903 456.256 182.98 456.334L184.708 458.062C184.765 458.119 184.813 458.185 184.849 458.257L185.776 460.112L186.671 461.901C186.723 462.005 186.75 462.12 186.75 462.236V463.714C186.75 464.206 186.124 464.415 185.828 464.021C185.717 463.872 185.567 463.757 185.394 463.689L183.272 462.839C183.124 462.78 182.966 462.75 182.807 462.75H180.25H173.5H161C160.586 462.75 160.25 462.414 160.25 462V456Z" fill="#D9D9D9"/>
<path d="M184.708 458.062L182.98 456.334C182.903 456.256 182.809 456.197 182.706 456.159L180.33 455.295C180.248 455.265 180.161 455.25 180.074 455.25H173.5H161C160.586 455.25 160.25 455.586 160.25 456V462C160.25 462.414 160.586 462.75 161 462.75H173.5H180.25H182.807C182.966 462.75 183.124 462.78 183.272 462.839L185.394 463.689C185.567 463.757 185.717 463.872 185.828 464.021C186.124 464.415 186.75 464.206 186.75 463.714V462.236C186.75 462.12 186.723 462.005 186.671 461.901L185.776 460.112L184.849 458.257M184.708 458.062L184.885 457.885M184.708 458.062C184.765 458.119 184.813 458.185 184.849 458.257M184.849 458.257L185.073 458.145" stroke="black" stroke-width="0.5"/>
<path d="M169 463.65C171.568 463.65 173.65 461.568 173.65 459C173.65 456.432 171.568 454.35 169 454.35C166.432 454.35 164.35 456.432 164.35 459C164.35 461.568 166.432 463.65 169 463.65Z" fill="#D9D9D9" stroke="black" stroke-width="0.7"/>
<path d="M160.162 459L160.687 457.687L162 457.162L163.313 457.687L163.838 459L163.313 460.313L162 460.838L160.687 460.313L160.162 459Z" fill="#D9D9D9" stroke="black" stroke-width="0.3"/>
<path d="M139.5 357L139.004 477.996C139.002 478.55 139.45 479 140.004 479H142H144C144.552 479 145 478.552 145 478V357" stroke="black"/>
<path d="M140 365.5H145" stroke="black"/>
<path d="M146 352H142H138M146 357H138" stroke="black" stroke-width="0.5"/>
<path d="M149.084 352.149C149.463 352.191 149.75 352.512 149.75 352.894V355.7C149.75 356.051 149.507 356.355 149.165 356.432L146.72 356.982C146.251 357.087 145.806 356.731 145.806 356.25V354.5V352.619C145.806 352.171 146.195 351.823 146.639 351.874L149.084 352.149ZM134.25 352.894C134.25 352.512 134.537 352.191 134.916 352.149L137.361 351.874C137.805 351.823 138.194 352.171 138.194 352.619V354.5V356.25C138.194 356.731 137.749 357.087 137.28 356.982L134.835 356.432C134.493 356.355 134.25 356.051 134.25 355.7V352.894Z" fill="#D9D9D9"/>
<path d="M149.165 356.432C149.507 356.355 149.75 356.051 149.75 355.7V352.894C149.75 352.512 149.463 352.191 149.084 352.149L146.639 351.874C146.195 351.823 145.806 352.171 145.806 352.619V354.5V356.25C145.806 356.731 146.251 357.087 146.72 356.982L149.165 356.432ZM149.165 356.432L149.22 356.676M134.25 352.894C134.25 352.512 134.537 352.191 134.916 352.149L137.361 351.874C137.805 351.823 138.194 352.171 138.194 352.619V354.5V356.25C138.194 356.731 137.749 357.087 137.28 356.982L134.835 356.432C134.493 356.355 134.25 356.051 134.25 355.7V352.894Z" stroke="black" stroke-width="0.5"/>
<path d="M147.75 317.25H136.25V351.75H147.75V317.25Z" fill="#D9D9D9" stroke="black" stroke-width="0.5"/>
<path d="M136 328.75H148" stroke="black" stroke-width="0.5"/>
<path d="M146.95 323C146.95 325.911 144.701 328.25 141.95 328.25C139.199 328.25 136.95 325.911 136.95 323C136.95 320.089 139.199 317.75 141.95 317.75C144.701 317.75 146.95 320.089 146.95 323Z" fill="#D9D9D9" stroke="black" stroke-width="0.5"/>
<path d="M136.5 317L157 295.5M147.899 321.577L156 318.5" stroke="black" stroke-width="0.7"/>
<path d="M162.5 317.75C164.847 317.75 166.75 315.847 166.75 313.5C166.75 311.153 164.847 309.25 162.5 309.25C160.153 309.25 158.25 311.153 158.25 313.5C158.25 315.847 160.153 317.75 162.5 317.75Z" fill="#D9D9D9" stroke="black" stroke-width="0.5"/>
<path d="M160.496 312.663L160.83 311.83L161.663 311.496L162.5 311.162L163.337 311.496L164.17 311.83L164.504 312.663L164.838 313.5L164.504 314.337L164.17 315.17L163.337 315.504L162.5 315.838L161.663 315.504L160.83 315.17L160.496 314.337L160.162 313.5L160.496 312.663Z" fill="#D9D9D9" stroke="black" stroke-width="0.3"/>
<path d="M161 457.5L159.5 316.5" stroke="black" stroke-width="0.4"/>
<path d="M185.367 312.179L188.651 303.349L189.968 300.032L191.905 295.595L193.069 292.663C193.171 292.407 193.294 292.159 193.437 291.923L196.038 287.619C196.197 287.355 196.381 287.106 196.587 286.876L202.742 279.982L225.274 257.45L270.339 212.385L356.932 125.792C358.884 123.84 358.884 120.674 356.932 118.721L354.665 116.454L352.355 114.144C350.419 112.209 347.287 112.19 345.328 114.101L256.173 201.08L209.829 246.294L186.656 268.901L180 275L173 281.5L165 289.5L162.442 291.868C162.148 292.14 161.823 292.376 161.473 292.57L158 294.5" stroke="black" stroke-width="0.7"/>
<path d="M291.888 158.165L291.895 158.156L294.364 155.07C294.595 154.781 294.795 154.469 294.961 154.138L296.424 151.211C296.633 150.794 296.785 150.35 296.876 149.893L297.525 146.651C297.677 145.889 297.658 145.103 297.47 144.349L296.236 139.414C296.006 138.492 296.611 137.568 297.549 137.412C298.086 137.322 298.633 137.507 299.005 137.905L299.396 138.321C299.864 138.821 300.125 139.48 300.125 140.165V141.5V146.625V146.639L300.75 158.007V164.362C300.75 164.807 300.806 165.25 300.918 165.68L303.751 176.609C304.041 177.725 303.698 178.91 302.857 179.698C301.319 181.14 298.827 180.694 297.884 178.809L291.931 166.903L290.737 163.421L290.736 163.419L289.919 160.966C289.835 160.713 289.891 160.434 290.067 160.234L291.888 158.165Z" fill="#D9D9D9" stroke="black" stroke-width="0.5"/>
<path d="M300.5 179.75C302.847 179.75 304.75 177.847 304.75 175.5C304.75 173.153 302.847 171.25 300.5 171.25C298.153 171.25 296.25 173.153 296.25 175.5C296.25 177.847 298.153 179.75 300.5 179.75Z" fill="#5A5A5A" stroke="black" stroke-width="0.5"/>
<path d="M298.496 174.663L298.83 173.83L299.663 173.496L300.5 173.162L301.337 173.496L302.17 173.83L302.504 174.663L302.838 175.5L302.504 176.337L302.17 177.17L301.337 177.504L300.5 177.838L299.663 177.504L298.83 177.17L298.496 176.337L298.162 175.5L298.496 174.663Z" fill="#D9D9D9" stroke="black" stroke-width="0.3"/>
<path d="M294.5 163.5C295.605 163.5 296.5 162.605 296.5 161.5C296.5 160.395 295.605 159.5 294.5 159.5C293.395 159.5 292.5 160.395 292.5 161.5C292.5 162.605 293.395 163.5 294.5 163.5Z" fill="#D9D9D9" stroke="black"/>
<path d="M161.5 309.5L293 161.5" stroke="black" stroke-width="0.4"/>
<path d="M361 132.5C374.531 132.5 385.5 121.531 385.5 108C385.5 94.469 374.531 83.5 361 83.5C347.469 83.5 336.5 94.469 336.5 108C336.5 121.531 347.469 132.5 361 132.5Z" fill="#D9D9D9" stroke="black"/>
<path d="M361 122.5C369.008 122.5 375.5 116.008 375.5 108C375.5 99.9919 369.008 93.5 361 93.5C352.992 93.5 346.5 99.9919 346.5 108C346.5 116.008 352.992 122.5 361 122.5Z" fill="#D9D9D9" stroke="black"/>
<path d="M361 117.5C366.247 117.5 370.5 113.247 370.5 108C370.5 102.753 366.247 98.5 361 98.5C355.753 98.5 351.5 102.753 351.5 108C351.5 113.247 355.753 117.5 361 117.5Z" fill="#D9D9D9" stroke="black"/>
<path d="M381.5 107.5C382.605 107.5 383.5 106.605 383.5 105.5C383.5 104.395 382.605 103.5 381.5 103.5C380.395 103.5 379.5 104.395 379.5 105.5C379.5 106.605 380.395 107.5 381.5 107.5Z" fill="#D9D9D9" stroke="black"/>
<path d="M345.5 97.5C346.605 97.5 347.5 96.6046 347.5 95.5C347.5 94.3954 346.605 93.5 345.5 93.5C344.395 93.5 343.5 94.3954 343.5 95.5C343.5 96.6046 344.395 97.5 345.5 97.5Z" fill="#D9D9D9" stroke="black"/>
<path d="M360.5 110.5C361.605 110.5 362.5 109.605 362.5 108.5C362.5 107.395 361.605 106.5 360.5 106.5C359.395 106.5 358.5 107.395 358.5 108.5C358.5 109.605 359.395 110.5 360.5 110.5Z" fill="#D9D9D9" stroke="black"/>
<path d="M329.429 130L330.5 128.5L331.068 127.672C331.578 126.929 331.878 126.062 331.935 125.162L332.1 122.592C332.122 122.241 332.107 121.888 332.056 121.54L331.576 118.302C331.511 117.863 331.387 117.434 331.208 117.027L329.88 114C329.583 113.322 329.139 112.719 328.58 112.233L324.739 108.899C323.911 108.18 323.872 106.907 324.655 106.138C325.103 105.698 325.742 105.511 326.357 105.64L326.915 105.758C327.648 105.911 328.294 106.338 328.724 106.951L329.489 108.045L332.429 112.243L339.465 121.202" stroke="black" stroke-width="0.5"/>
<path d="M367.293 274.707C367.683 275.098 368.317 275.098 368.707 274.707L375.071 268.343C375.462 267.953 375.462 267.319 375.071 266.929C374.681 266.538 374.047 266.538 373.657 266.929L368 272.586L362.343 266.929C361.953 266.538 361.319 266.538 360.929 266.929C360.538 267.319 360.538 267.953 360.929 268.343L367.293 274.707ZM367 164V274H369V164H367Z" fill="black"/>
<path d="M160.293 97.2929C159.902 97.6834 159.902 98.3166 160.293 98.7071L166.657 105.071C167.047 105.462 167.681 105.462 168.071 105.071C168.462 104.681 168.462 104.047 168.071 103.657L162.414 98L168.071 92.3431C168.462 91.9526 168.462 91.3195 168.071 90.9289C167.681 90.5384 167.047 90.5384 166.657 90.9289L160.293 97.2929ZM281 97H161V99H281V97Z" fill="black"/>
<path d="M300.5 60.6667C301.973 60.6667 303.167 59.4728 303.167 58C303.167 56.5272 301.973 55.3333 300.5 55.3333C299.027 55.3333 297.833 56.5272 297.833 58C297.833 59.4728 299.027 60.6667 300.5 60.6667ZM301 133V58H300V133H301Z" fill="black"/>
<path d="M328 25.6667C329.473 25.6667 330.667 24.4728 330.667 23C330.667 21.5272 329.473 20.3333 328 20.3333C326.527 20.3333 325.333 21.5272 325.333 23C325.333 24.4728 326.527 25.6667 328 25.6667ZM328.5 98V23H327.5V98H328.5Z" fill="black"/>
<path d="M367.064 312.239C365.939 312.239 364.936 312.045 364.055 311.659C363.18 311.273 362.484 310.736 361.967 310.048C361.456 309.355 361.178 308.551 361.132 307.636H363.28C363.325 308.199 363.518 308.685 363.859 309.094C364.2 309.497 364.646 309.81 365.197 310.031C365.749 310.253 366.359 310.364 367.03 310.364C367.78 310.364 368.445 310.233 369.024 309.972C369.604 309.71 370.058 309.347 370.388 308.881C370.717 308.415 370.882 307.875 370.882 307.261C370.882 306.619 370.723 306.054 370.405 305.565C370.087 305.071 369.621 304.685 369.007 304.406C368.393 304.128 367.643 303.989 366.757 303.989H365.359V302.114H366.757C367.45 302.114 368.058 301.989 368.581 301.739C369.109 301.489 369.521 301.136 369.817 300.682C370.118 300.227 370.268 299.693 370.268 299.08C370.268 298.489 370.138 297.974 369.876 297.537C369.615 297.099 369.246 296.759 368.768 296.514C368.297 296.27 367.74 296.148 367.098 296.148C366.496 296.148 365.928 296.259 365.393 296.48C364.865 296.696 364.433 297.011 364.098 297.426C363.763 297.835 363.581 298.33 363.553 298.909H361.507C361.541 297.994 361.817 297.193 362.334 296.506C362.851 295.812 363.527 295.273 364.362 294.886C365.203 294.5 366.126 294.307 367.132 294.307C368.212 294.307 369.138 294.526 369.911 294.963C370.683 295.395 371.277 295.966 371.692 296.676C372.107 297.386 372.314 298.153 372.314 298.977C372.314 299.96 372.055 300.798 371.538 301.491C371.027 302.185 370.331 302.665 369.45 302.932V303.068C370.553 303.25 371.413 303.719 372.033 304.474C372.652 305.224 372.962 306.153 372.962 307.261C372.962 308.21 372.703 309.062 372.186 309.818C371.675 310.568 370.976 311.159 370.089 311.591C369.203 312.023 368.195 312.239 367.064 312.239Z" fill="black"/>
<path d="M127.041 97V95.4659L132.803 89.1591C133.479 88.4205 134.036 87.7784 134.473 87.233C134.911 86.6818 135.234 86.1648 135.445 85.6818C135.661 85.1932 135.768 84.6818 135.768 84.1477C135.768 83.5341 135.621 83.0028 135.325 82.554C135.036 82.1051 134.638 81.7585 134.132 81.5142C133.626 81.2699 133.058 81.1477 132.428 81.1477C131.757 81.1477 131.172 81.2869 130.672 81.5653C130.178 81.8381 129.794 82.2216 129.521 82.7159C129.254 83.2102 129.121 83.7898 129.121 84.4545H127.109C127.109 83.4318 127.345 82.5341 127.817 81.7614C128.288 80.9886 128.93 80.3864 129.743 79.9545C130.561 79.5227 131.479 79.3068 132.496 79.3068C133.518 79.3068 134.425 79.5227 135.214 79.9545C136.004 80.3864 136.624 80.9687 137.072 81.7017C137.521 82.4347 137.746 83.25 137.746 84.1477C137.746 84.7898 137.629 85.4176 137.396 86.0312C137.169 86.6392 136.771 87.3182 136.203 88.0682C135.641 88.8125 134.859 89.7216 133.859 90.7955L129.939 94.9886V95.125H138.053V97H127.041Z" fill="black"/>
<path d="M328 29.5C336.008 29.5 342.5 23.0081 342.5 15C342.5 6.99187 336.008 0.5 328 0.5C319.992 0.5 313.5 6.99187 313.5 15C313.5 23.0081 319.992 29.5 328 29.5Z" fill="#D9D9D9" stroke="black"/>
<path d="M301 59.5C309.008 59.5 315.5 53.0081 315.5 45C315.5 36.9919 309.008 30.5 301 30.5C292.992 30.5 286.5 36.9919 286.5 45C286.5 53.0081 292.992 59.5 301 59.5Z" fill="#D9D9D9" stroke="black"/>
<path d="M296.22 54H294.004L300.413 36.5455H302.595L309.004 54H306.788L301.572 39.3068H301.436L296.22 54ZM297.038 47.1818H305.97V49.0568H297.038V47.1818Z" fill="black"/>
<path d="M322.309 25V7.54544H328.411C329.627 7.54544 330.63 7.75567 331.42 8.17613C332.21 8.5909 332.798 9.15056 333.184 9.8551C333.57 10.554 333.763 11.3295 333.763 12.1818C333.763 12.9318 333.63 13.5511 333.363 14.0398C333.102 14.5284 332.755 14.9148 332.323 15.1989C331.897 15.483 331.434 15.6932 330.934 15.8295V16C331.468 16.0341 332.005 16.2216 332.545 16.5625C333.085 16.9034 333.536 17.392 333.9 18.0284C334.263 18.6648 334.445 19.4432 334.445 20.3636C334.445 21.2386 334.246 22.0256 333.849 22.7244C333.451 23.4233 332.823 23.9773 331.965 24.3864C331.107 24.7955 329.991 25 328.616 25H322.309ZM324.423 23.125H328.616C329.996 23.125 330.977 22.858 331.556 22.3239C332.141 21.7841 332.434 21.1307 332.434 20.3636C332.434 19.7727 332.283 19.2273 331.982 18.7273C331.681 18.2216 331.252 17.8182 330.695 17.517C330.138 17.2102 329.479 17.0568 328.718 17.0568H324.423V23.125ZM324.423 15.2159H328.343C328.979 15.2159 329.553 15.0909 330.065 14.8409C330.582 14.5909 330.991 14.2386 331.292 13.7841C331.599 13.3295 331.752 12.7955 331.752 12.1818C331.752 11.4148 331.485 10.7642 330.951 10.2301C330.417 9.69033 329.57 9.42044 328.411 9.42044H324.423V15.2159Z" fill="black"/>
<path d="M383.943 61.5455V79H381.83V63.7614H381.727L377.466 66.5909V64.4432L381.83 61.5455H383.943Z" fill="black"/>
</g>
<defs>
<clipPath id="clip0_1_2">
<rect width="386" height="618" fill="white"/>
</clipPath>
</defs>
</svg>
