<svg width="70" height="70" viewBox="0 0 559 599" fill="none" xmlns="http://www.w3.org/2000/svg">
<g filter="url(#filter0_i_0_1)">
<path d="M54.2337 3.8125H114.963C117.201 3.8125 119.014 5.6261 119.014 7.86328V7.86328C119.014 10.1005 120.828 11.9141 123.065 11.9141H131C132.105 11.9141 133 12.8095 133 13.9141V19.6133V25.3125C133 26.4171 132.105 27.3125 131 27.3125H124.014C121.253 27.3125 119.014 29.5511 119.014 32.3125V36.2188V68.625V133.438V263.062V517.313C119.014 520.074 116.776 522.312 114.014 522.312H74.5V522.312C72.2968 522.312 70.5091 520.53 70.5028 518.327L69.7641 257.312L69.5766 191.062L69.4829 157.938L69.436 141.375L69.4154 134.091C69.4138 133.54 68.9666 133.094 68.4154 133.094H65.2789C64.0762 133.094 63.1455 132.04 63.2943 130.846L67.4126 97.8125L69.299 82.558C69.4465 81.3651 68.516 80.3125 67.3141 80.3125H6.45826C4.14533 80.3125 2.13429 78.7261 1.59571 76.4768L0.295197 71.0454C0.144662 70.4167 0.621243 69.8125 1.26771 69.8125H75.1848L75.1898 66.5L75.1957 62.5625H1.5996C0.860703 62.5625 0.376989 61.7888 0.700623 61.1245L28.3501 4.37451C28.5176 4.03067 28.8666 3.8125 29.2491 3.8125H54.2337L29.3696 52.3566C29.0288 53.022 29.512 53.8125 30.2597 53.8125H69.2786H75.2438V53.8125C75.2246 53.8125 75.209 53.8281 75.2089 53.8473L74.5 522.312H109.969C112.742 522.312 114.986 520.055 114.969 517.281L112.07 53.8473C112.07 53.8281 112.054 53.8125 112.035 53.8125V53.8125V53.8125C112.016 53.8125 112 53.7969 112 53.7777V44.8125V31.8125V13.8125C112 11.0511 109.761 8.8125 107 8.8125H69.0803L69.0472 0L69.0637 3.84375L69.0803 8.8125H51.857C51.7344 8.8125 51.6122 8.8002 51.4921 8.77578V8.77578C49.7704 8.42576 49.4815 6.08747 51.0661 5.32886L54.2337 3.8125Z" fill="#151385"/>
</g>
<path d="M118.014 517.312C118.014 519.37 116.461 521.065 114.463 521.288C115.408 520.22 115.978 518.814 115.969 517.275L113.07 53.8411C113.069 53.7113 113.044 53.5872 113 53.4729V44.8125V31.8125V13.8125C113 10.4988 110.314 7.8125 107 7.8125H70.0769L70.067 4.8125H114.963C116.648 4.8125 118.014 6.17838 118.014 7.86328C118.014 10.6528 120.275 12.9141 123.065 12.9141H131C131.552 12.9141 132 13.3618 132 13.9141V19.6133V25.3125C132 25.8648 131.552 26.3125 131 26.3125H124.014C120.7 26.3125 118.014 28.9988 118.014 32.3125V36.2188V68.625V133.438V263.062V517.312ZM1.26771 70.8125H74.1833L73.5018 521.142C72.34 520.732 71.5065 519.626 71.5028 518.324L70.7641 257.31L70.5766 191.06L70.4829 157.935L70.436 141.372L70.4154 134.088C70.4123 132.986 69.5178 132.094 68.4154 132.094H65.2789C64.6776 132.094 64.2122 131.567 64.2866 130.97L68.4049 97.9362L68.405 97.9352L70.2914 82.6807C70.5127 80.8914 69.117 79.3125 67.3141 79.3125H6.45826C4.60792 79.3125 2.99908 78.0434 2.56822 76.2439L1.26771 70.8125ZM74.2075 54.8125L74.1973 61.5625H1.5996L29.2491 4.8125H50.0261C48.5645 6.01588 48.7488 8.34027 50.2772 9.34351L28.4796 51.9007C27.7979 53.2316 28.7644 54.8125 30.2597 54.8125H69.2786H74.2075ZM51.4979 6.23083L51.9928 5.99392L51.2143 7.51392C50.8993 7.12958 50.9671 6.48497 51.4979 6.23083ZM68.0765 7.8125H53.3084L54.845 4.8125H68.0652L68.0765 7.8125Z" stroke="#151385" stroke-width="2"/>
<path d="M117.316 571.681C120.171 567.69 125.411 569.608 123.959 574.295M71.4024 571.732C68.5145 567.75 63.2925 569.716 64.8045 574.397M97.782 597.353C101.516 595.94 108.135 593.212 115.036 589.294C110.978 593.509 105.419 596.652 97.782 597.353ZM117.071 586.941C110.316 591.042 103.516 594.022 99.1362 595.756C102.37 592.417 107.975 585.598 117.723 571.972C119.042 570.128 120.838 569.729 122.074 570.201C122.695 570.438 123.199 570.898 123.475 571.545C123.752 572.192 123.816 573.066 123.481 574.147C122.146 578.457 120.126 583.012 117.071 586.941ZM116.909 571.39C105.111 587.883 99.4436 594.311 96.7411 596.675C95.9944 596.952 95.4015 597.162 94.9918 597.304C94.7793 597.378 94.6161 597.433 94.5064 597.47C94.5031 597.471 94.4998 597.472 94.4966 597.473C94.4921 597.472 94.4874 597.47 94.4827 597.468C94.3702 597.431 94.2029 597.374 93.9852 597.298C93.5648 597.152 92.9564 596.937 92.1906 596.652C89.4439 594.273 83.7066 587.845 71.8071 571.438C70.2544 569.297 67.9977 568.674 66.271 569.35C65.4106 569.687 64.7053 570.344 64.3293 571.255C63.9537 572.165 63.9216 573.29 64.3287 574.551C65.4871 578.137 67.1226 581.91 69.4335 585.375C64.7092 582.292 60.1718 578.67 56.6701 574.555C52.6327 569.81 49.9966 564.439 49.9966 558.5C49.9966 546.211 50.023 540.318 55.2199 534.979C57.8439 532.283 61.8077 529.711 67.834 526.581C73.8554 523.453 81.889 519.792 92.6239 514.902C93.7959 514.369 95.2052 514.362 96.3817 514.885C107.114 519.658 115.145 523.262 121.164 526.369C127.187 529.479 131.15 532.067 133.772 534.793C138.97 540.196 138.997 546.211 138.997 558.5C138.997 564.48 136.324 569.884 132.24 574.653C128.687 578.8 124.086 582.445 119.309 585.537C121.663 581.994 123.298 578.117 124.436 574.443C124.828 573.18 124.781 572.057 124.395 571.152C124.008 570.246 123.295 569.596 122.431 569.267C120.697 568.605 118.445 569.244 116.909 571.39ZM89.7615 595.718C85.3286 593.959 78.4753 590.945 71.6945 586.802C68.6784 582.934 66.6469 578.474 65.2803 574.243C64.9315 573.163 64.9851 572.287 65.2536 571.637C65.5217 570.987 66.0189 570.523 66.6359 570.281C67.8642 569.8 69.6624 570.184 70.9976 572.025C80.8165 585.564 86.4819 592.369 89.7615 595.718ZM73.7507 589.177C80.7264 593.158 87.4407 595.927 91.2118 597.353C83.4954 596.646 77.8675 593.451 73.7507 589.177Z" stroke="#151385"/>
<path d="M124.5 581.5C302 581.5 556.5 503.748 556.5 274C556.5 44.2515 553 6.5 115 6.5" stroke="#151385" stroke-width="5"/>
<g filter="url(#filter1_d_0_1)">
<path d="M118 76.0459C118 75.3561 118.143 74.6738 118.419 74.0418L130.689 45.9959C131.486 44.176 133.284 43 135.27 43H154.5H190H260.5H395.48C397.828 43 399.859 44.6331 400.364 46.9257L409.164 86.9257C409.85 90.0455 407.475 93 404.28 93H339.25H303.625H271.856C269.726 93 268.093 91.1071 268.406 89V89C268.719 86.8929 267.086 85 264.956 85H254.322C252.294 85 250.466 86.2257 249.696 88.1026L248.96 89.8974C248.19 91.7743 246.363 93 244.334 93H191.125H123C120.239 93 118 90.7614 118 88V76.0459Z" fill="#151385"/>
</g>
<g filter="url(#filter2_d_0_1)">
<path d="M248.945 87.7317C249.521 85.5331 251.508 84 253.781 84H263.52C266.796 84 269.187 87.0989 268.356 90.2683L160.055 503.268C159.479 505.467 157.492 507 155.219 507H145.48C142.204 507 139.813 503.901 140.644 500.732L248.945 87.7317Z" fill="#151385"/>
</g>
<g filter="url(#filter3_i_0_1)">
<path d="M361 409L347.5 349.3H256.6L241.3 409H206.2L260.5 208.3C263.3 198.1 266.2 190.3 269.2 184.9C272.2 179.3 276.5 175.4 282.1 173.2C287.7 171 295.5 170 305.5 170.2L342.7 171.1L398.8 409H361ZM293.5 207.7L264.7 316.9H340.3L314.2 203.5H297.7C295.3 203.5 293.9 204.9 293.5 207.7Z" fill="#151385"/>
</g>
<g filter="url(#filter4_i_0_1)">
<path d="M413.324 396.278L425.185 376.342C429.737 379.778 434.117 382.632 438.324 384.903C442.53 387.108 446.758 388.727 451.009 389.76C455.259 390.793 459.565 391.271 463.926 391.195C469.524 391.097 474.359 390.166 478.43 388.402C482.566 386.572 485.746 384.107 487.971 381.008C490.196 377.909 491.272 374.309 491.201 370.208C491.12 365.586 489.654 361.77 486.801 358.76C484.013 355.683 480.353 353.077 475.823 350.942C471.292 348.742 466.436 346.613 461.256 344.555C456.536 342.684 451.747 340.651 446.89 338.457C442.098 336.262 437.722 333.636 433.762 330.579C429.801 327.458 426.577 323.672 424.09 319.223C421.668 314.772 420.402 309.357 420.29 302.978C420.146 294.711 422.103 287.482 426.163 281.29C430.221 275.034 435.899 270.181 443.196 266.733C450.493 263.22 458.86 261.381 468.299 261.216C474.939 261.1 481.756 261.86 488.752 263.496C495.812 265.066 502.79 267.549 509.686 270.944L499.797 291.921C495.127 289.268 490.176 287.238 484.942 285.832C479.707 284.36 474.714 283.666 469.962 283.749C465.275 283.831 461.155 284.652 457.601 286.211C454.111 287.705 451.381 289.836 449.41 292.605C447.504 295.308 446.582 298.45 446.645 302.03C446.719 306.261 448.083 309.818 450.738 312.702C453.458 315.585 456.986 318.128 461.322 320.331C465.657 322.469 470.284 324.57 475.204 326.633C480.123 328.696 485.046 330.921 489.971 333.31C494.96 335.632 499.501 338.418 503.595 341.667C507.754 344.915 511.078 348.829 513.567 353.409C516.122 357.987 517.455 363.531 517.569 370.041C517.717 378.503 515.634 385.995 511.32 392.516C507.07 398.972 501.005 404.059 493.126 407.778C485.246 411.431 476.001 413.351 465.391 413.536C455.887 413.702 446.747 412.331 437.971 409.424C429.195 406.517 420.979 402.135 413.324 396.278Z" fill="url(#paint0_linear_0_1)"/>
</g>
<path d="M49 536.333C49 536.117 49.0702 535.906 49.2 535.733L60.1053 521.193C60.2004 521.066 60.3243 520.964 60.4668 520.894L69.9369 516.275C70.2813 516.107 70.4994 515.757 70.4984 515.373L70.1276 366.408C70.1262 365.843 70.5926 365.389 71.1573 365.406L82.75 365.75L94 365.5L106 365.75L117.01 365.865C117.559 365.87 118 366.316 118 366.865V515.369C118 515.754 118.222 516.106 118.57 516.271L128.262 520.887C128.418 520.961 128.552 521.074 128.651 521.216L138.819 535.742C138.937 535.91 139 536.11 139 536.315V546V561.8C139 561.932 138.974 562.063 138.923 562.185L134.058 573.861C134.02 573.953 133.967 574.039 133.903 574.116L125.768 583.878C125.169 584.597 124 584.173 124 583.238V546.591C124 546.227 123.801 545.891 123.482 545.715L94.4819 529.765C94.1818 529.6 93.8182 529.6 93.5181 529.765L64.5181 545.715C64.1985 545.891 64 546.227 64 546.591V583.238C64 584.173 62.8305 584.597 62.2318 583.878L54.0967 574.116C54.0326 574.039 53.9804 573.953 53.9419 573.861L49.0769 562.185C49.0261 562.063 49 561.932 49 561.8V546V536.333Z" fill="url(#paint1_linear_0_1)"/>
<defs>
<filter id="filter0_i_0_1" x="0.267242" y="0" width="137.733" height="527.312" filterUnits="userSpaceOnUse" color-interpolation-filters="sRGB">
<feFlood flood-opacity="0" result="BackgroundImageFix"/>
<feBlend mode="normal" in="SourceGraphic" in2="BackgroundImageFix" result="shape"/>
<feColorMatrix in="SourceAlpha" type="matrix" values="0 0 0 0 0 0 0 0 0 0 0 0 0 0 0 0 0 0 127 0" result="hardAlpha"/>
<feOffset dx="5" dy="5"/>
<feGaussianBlur stdDeviation="4"/>
<feComposite in2="hardAlpha" operator="arithmetic" k2="-1" k3="1"/>
<feColorMatrix type="matrix" values="0 0 0 0 0 0 0 0 0 0 0 0 0 0 0 0 0 0 1 0"/>
<feBlend mode="color" in2="shape" result="effect1_innerShadow_0_1"/>
</filter>
<filter id="filter1_d_0_1" x="115" y="40" width="307.282" height="66" filterUnits="userSpaceOnUse" color-interpolation-filters="sRGB">
<feFlood flood-opacity="0" result="BackgroundImageFix"/>
<feColorMatrix in="SourceAlpha" type="matrix" values="0 0 0 0 0 0 0 0 0 0 0 0 0 0 0 0 0 0 127 0" result="hardAlpha"/>
<feOffset dx="5" dy="5"/>
<feGaussianBlur stdDeviation="4"/>
<feComposite in2="hardAlpha" operator="out"/>
<feColorMatrix type="matrix" values="0 0 0 0 0 0 0 0 0 0 0 0 0 0 0 0 0 0 0.8 0"/>
<feBlend mode="normal" in2="BackgroundImageFix" result="effect1_dropShadow_0_1"/>
<feBlend mode="normal" in="SourceGraphic" in2="effect1_dropShadow_0_1" result="shape"/>
</filter>
<filter id="filter2_d_0_1" x="137.478" y="81" width="144.045" height="439" filterUnits="userSpaceOnUse" color-interpolation-filters="sRGB">
<feFlood flood-opacity="0" result="BackgroundImageFix"/>
<feColorMatrix in="SourceAlpha" type="matrix" values="0 0 0 0 0 0 0 0 0 0 0 0 0 0 0 0 0 0 127 0" result="hardAlpha"/>
<feOffset dx="5" dy="5"/>
<feGaussianBlur stdDeviation="4"/>
<feComposite in2="hardAlpha" operator="out"/>
<feColorMatrix type="matrix" values="0 0 0 0 0 0 0 0 0 0 0 0 0 0 0 0 0 0 0.8 0"/>
<feBlend mode="normal" in2="BackgroundImageFix" result="effect1_dropShadow_0_1"/>
<feBlend mode="normal" in="SourceGraphic" in2="effect1_dropShadow_0_1" result="shape"/>
</filter>
<filter id="filter3_i_0_1" x="206.2" y="169.9" width="200.6" height="247.1" filterUnits="userSpaceOnUse" color-interpolation-filters="sRGB">
<feFlood flood-opacity="0" result="BackgroundImageFix"/>
<feBlend mode="normal" in="SourceGraphic" in2="BackgroundImageFix" result="shape"/>
<feColorMatrix in="SourceAlpha" type="matrix" values="0 0 0 0 0 0 0 0 0 0 0 0 0 0 0 0 0 0 127 0" result="hardAlpha"/>
<feOffset dx="10" dy="10"/>
<feGaussianBlur stdDeviation="4"/>
<feComposite in2="hardAlpha" operator="arithmetic" k2="-1" k3="1"/>
<feColorMatrix type="matrix" values="0 0 0 0 0 0 0 0 0 0 0 0 0 0 0 0 0 0 0.25 0"/>
<feBlend mode="normal" in2="shape" result="effect1_innerShadow_0_1"/>
</filter>
<filter id="filter4_i_0_1" x="410.984" y="260.389" width="117.329" height="164.05" filterUnits="userSpaceOnUse" color-interpolation-filters="sRGB">
<feFlood flood-opacity="0" result="BackgroundImageFix"/>
<feBlend mode="normal" in="SourceGraphic" in2="BackgroundImageFix" result="shape"/>
<feColorMatrix in="SourceAlpha" type="matrix" values="0 0 0 0 0 0 0 0 0 0 0 0 0 0 0 0 0 0 127 0" result="hardAlpha"/>
<feOffset dx="10" dy="10"/>
<feGaussianBlur stdDeviation="5"/>
<feComposite in2="hardAlpha" operator="arithmetic" k2="-1" k3="1"/>
<feColorMatrix type="matrix" values="0 0 0 0 0 0 0 0 0 0 0 0 0 0 0 0 0 0 0.2 0"/>
<feBlend mode="normal" in2="shape" result="effect1_innerShadow_0_1"/>
</filter>
<linearGradient id="paint0_linear_0_1" x1="508.484" y1="212.824" x2="515.325" y2="604.764" gradientUnits="userSpaceOnUse">
<stop offset="0.37" stop-color="#151385"/>
<stop offset="0.8" stop-color="#071F53"/>
</linearGradient>
<linearGradient id="paint1_linear_0_1" x1="94" y1="515" x2="94" y2="585" gradientUnits="userSpaceOnUse">
<stop offset="0.09" stop-color="#151385"/>
<stop offset="0.655" stop-color="#071F53"/>
</linearGradient>
</defs>
</svg>
