<svg width="80" height="19" viewBox="0 0 800 190" fill="none" xmlns="http://www.w3.org/2000/svg">
<path fill-rule="evenodd" clip-rule="evenodd" d="M0 127.824C50.3269 124.327 101.76 116.686 129.586 116.266C138.758 116.126 150.173 116.916 138.687 120.189C110.966 128.092 76.4221 133.584 42.656 134.459C50.1344 135.534 57.5752 136.928 67.645 139.134C134.7 153.829 210.091 162.793 283.75 162.855C344.711 162.907 408.472 157.127 464.274 140.762C443.551 128.481 425.2 115.077 409.347 100.036C375.549 67.9783 360.023 20.4903 430.831 3.40733C489.697 -10.7917 543.74 21.6983 550.722 58.1134C555.756 84.3644 539.917 103.52 520.485 121.427C512.27 128.996 502.178 135.667 490.535 141.5C635.753 206.88 773.007 163.746 800 72.6653C792.329 184.842 603.838 211.132 478.233 147.123C368.124 193.056 148.993 177.161 36.9647 139.633C51.7509 148.91 64.3635 162.045 72.6931 174.586C73.9278 176.442 79.8319 183.566 79.3969 187.445C79.2373 188.886 78.1998 189.883 75.7274 189.994C74.3174 190.057 72.8168 189.588 71.2457 188.646C66.6826 185.902 56.8742 175.612 47.1205 165.623C32.652 150.804 20.1348 139.945 0 127.824ZM475.574 134.388C453.827 121.5 433.755 106.382 417.717 90.4724C391.871 64.8323 382.635 34.2813 420.019 17.6313C443.152 7.32733 468.348 7.96333 489.955 16.2433C567.781 46.0703 530.184 113.092 475.574 134.388Z" fill="white"/>
</svg>
