<svg width="70" height="100" viewBox="0 0 190 512" fill="none" xmlns="http://www.w3.org/2000/svg">
<path fill-rule="evenodd" clip-rule="evenodd" d="M62.176 511.234C65.673 479.073 73.314 446.205 73.734 428.423C73.874 422.562 73.084 415.267 69.811 422.607C61.908 440.322 56.416 462.397 55.541 483.975C54.466 479.196 53.072 474.441 50.866 468.006C36.171 425.155 27.207 376.977 27.145 329.906C27.093 290.949 32.873 250.203 49.238 214.543C61.519 227.786 74.923 239.513 89.964 249.644C122.022 271.242 169.51 281.164 186.593 235.915C200.792 198.297 168.302 163.761 131.887 159.299C105.636 156.082 86.48 166.204 68.573 178.622C61.004 183.872 54.333 190.321 48.5 197.761C-16.88 104.961 26.254 17.25 117.335 0C5.158 4.902 -21.132 125.356 42.877 205.623C-3.056 275.987 12.839 416.021 50.367 487.612C41.09 478.163 27.955 470.103 15.414 464.78C13.558 463.991 6.434 460.218 2.555 460.496C1.114 460.598 0.116997 461.261 0.0059968 462.841C-0.0570032 463.742 0.411997 464.701 1.354 465.705C4.098 468.621 14.388 474.889 24.377 481.122C39.196 490.368 50.055 498.367 62.176 511.234ZM55.612 207.322C68.5 221.219 83.618 234.046 99.528 244.295C125.168 260.812 155.719 266.714 172.369 242.824C182.673 228.041 182.037 211.94 173.757 198.132C143.93 148.398 76.908 172.424 55.612 207.322Z" fill="#002A62"/>
</svg>
