<svg width="200" height="200" viewBox="0 0 200 200" fill="none" xmlns="http://www.w3.org/2000/svg">
<g clip-path="url(#clip0_10_2)">
<g clip-path="url(#clip1_10_2)">
<path d="M78 166H71L62 181H78V166Z" stroke="white" stroke-width="0.5"/>
<path d="M78.3575 185.108V180.577H74.7306V185.108" stroke="white" stroke-width="0.5"/>
<path d="M78.3575 185.108C78.3575 186.109 77.5456 186.92 76.544 186.92C75.5425 186.92 74.7306 186.109 74.7306 185.108" stroke="white" stroke-width="0.5"/>
<path d="M76.544 185.968C77.0198 185.968 77.4054 185.583 77.4054 185.108C77.4054 184.632 77.0198 184.247 76.544 184.247C76.0683 184.247 75.6826 184.632 75.6826 185.108C75.6826 185.583 76.0683 185.968 76.544 185.968Z" fill="white" stroke="white" stroke-width="0.5"/>
<path d="M78 167H78.9974V168.178H78V167Z" fill="white" stroke="white" stroke-width="0.5"/>
<path d="M78.9617 167.352L78.7453 167H78V167.352H78.9617ZM78 168.551V168.903H78.7453L78.9617 168.551H78Z" fill="white" stroke="white" stroke-width="0.5"/>
<path d="M41 164.89C41 164.79 41.0812 164.709 41.1813 164.709H41.7254C41.8255 164.709 41.9067 164.79 41.9067 164.89V167.246C41.9067 167.346 41.8255 167.427 41.7254 167.427H41.1813C41.0812 167.427 41 167.346 41 167.246V164.89Z" fill="white"/>
<path d="M80.4508 167H79V167.544H80.4508V167Z" fill="white"/>
<path d="M80.8109 167.146C80.8109 167.121 80.7906 167.101 80.7655 167.101H80.4029C80.3778 167.101 80.3575 167.121 80.3575 167.146V168.639C80.3575 168.679 80.4063 168.699 80.4349 168.671L80.7976 168.308C80.8062 168.3 80.8109 168.288 80.8109 168.276V167.871V167.146Z" fill="white" stroke="white" stroke-width="0.5"/>
<path d="M77.5168 166H77.3355C77.1502 166 77 166.15 77 166.335V166.517C77 166.702 77.1502 166.852 77.3355 166.852H77.5168C77.7021 166.852 77.8523 166.702 77.8523 166.517V166.335C77.8523 166.15 77.7021 166 77.5168 166Z" fill="white" stroke="white" stroke-width="0.3"/>
<path d="M78.3853 176.48L85.0297 168.566C85.2228 168.336 85.1927 167.993 84.9626 167.8L83.2955 166.402C83.0653 166.209 82.7222 166.239 82.5291 166.469L79.3818 170.218L78.3853 171.345" stroke="white"/>
<path d="M84.0881 164.845C84.0881 165.277 83.7181 165.633 83.2539 165.633C82.7896 165.633 82.4197 165.277 82.4197 164.845C82.4197 164.413 82.7896 164.056 83.2539 164.056C83.7181 164.056 84.0881 164.413 84.0881 164.845Z" fill="white" stroke="white" stroke-width="0.8"/>
<path d="M50.6646 137.35L53.1727 143.71M54.4136 135.985L56.7617 142.436" stroke="white"/>
<path d="M54.8886 136.064C56.1279 134.826 56.3316 132.818 55.0922 131.579C53.8529 130.341 51.8436 130.341 50.6041 131.579C49.3648 132.818 49.6596 134.826 50.899 136.064" stroke="white"/>
<path d="M53.0845 141.341L54.2298 144.751C54.2351 144.766 54.316 144.751 54.4104 144.717L54.7505 144.593L55.0914 144.469C55.1854 144.435 55.2572 144.394 55.2516 144.379L54.0218 141" stroke="white"/>
<path d="M51.9562 144.068L52.8083 143.757" stroke="white"/>
<path d="M52.8182 141.245L52.1366 141.493L51.455 141.741M53.1282 142.097L51.7649 142.593" stroke="white" stroke-width="0.5"/>
<path d="M53.3571 141.078C53.4242 141.062 53.493 141.099 53.5167 141.164L53.6907 141.642C53.7124 141.702 53.6898 141.768 53.6363 141.803L53.2538 142.048C53.1804 142.095 53.0825 142.062 53.0526 141.98L52.9442 141.682L52.8276 141.362C52.7998 141.286 52.8445 141.202 52.9234 141.183L53.3571 141.078ZM50.8754 142.125C50.8517 142.06 50.8807 141.988 50.9427 141.957L51.3423 141.759C51.4148 141.723 51.5026 141.758 51.5304 141.834L51.647 142.154L51.7555 142.452C51.7853 142.534 51.7315 142.622 51.6451 142.634L51.1944 142.692C51.1313 142.7 51.071 142.663 51.0493 142.603L50.8754 142.125Z" fill="white"/>
<path d="M53.6363 141.803C53.6898 141.768 53.7124 141.702 53.6907 141.642L53.5167 141.164C53.493 141.099 53.4242 141.062 53.3571 141.078L52.9234 141.183C52.8445 141.202 52.7998 141.286 52.8276 141.362L52.9442 141.682L53.0526 141.98C53.0825 142.062 53.1804 142.095 53.2538 142.048L53.6363 141.803ZM53.6363 141.803L53.6608 141.841M50.8754 142.125C50.8517 142.06 50.8807 141.988 50.9427 141.957L51.3423 141.759C51.4148 141.723 51.5026 141.758 51.5304 141.834L51.647 142.154L51.7555 142.452C51.7853 142.534 51.7315 142.622 51.6451 142.634L51.1944 142.692C51.1313 142.7 51.071 142.663 51.0493 142.603L50.8754 142.125Z" stroke="white" stroke-width="0.5"/>
<path d="M52.2022 135L50.2425 135.713L52.3809 141.589L54.3407 140.875L52.2022 135Z" stroke="white" stroke-width="0.5"/>
<path d="M55.6632 134.579H57.8394" stroke="white" stroke-width="0.5"/>
<path d="M54.8135 133.951C54.8135 134.479 54.4056 134.903 53.9067 134.903C53.4078 134.903 53 134.479 53 133.951C53 133.424 53.4078 133 53.9067 133C54.4056 133 54.8135 133.424 54.8135 133.951Z" stroke="white" stroke-width="0.5"/>
<path d="M50 132.896L53.7176 129M52.0672 133.726L53.5363 133.168" stroke="white" stroke-width="0.7"/>
<path d="M51.715 135.453C52.1407 135.453 52.4857 135.108 52.4857 134.683C52.4857 134.257 52.1407 133.913 51.715 133.913C51.2893 133.913 50.9443 134.257 50.9443 134.683C50.9443 135.108 51.2893 135.453 51.715 135.453Z" fill="white" stroke="white" stroke-width="0.5"/>
<path d="M51.3516 134.531L51.4122 134.38L51.5632 134.32L51.715 134.259L51.8668 134.32L52.0179 134.38L52.0784 134.531L52.139 134.683L52.0784 134.835L52.0179 134.985L51.8668 135.046L51.715 135.107L51.5632 135.046L51.4122 134.985L51.3516 134.835L51.291 134.683L51.3516 134.531Z" fill="white" stroke="white" stroke-width="0.3"/>
<path d="M55 146L51.1035 135.849" stroke="white" stroke-width="0.4"/>
<path d="M55.8619 134.443L56.4574 132.843L56.6963 132.242L57.0475 131.438L57.2586 130.907C57.2771 130.86 57.2994 130.815 57.3254 130.772L57.797 129.992C57.8259 129.945 57.8592 129.899 57.8966 129.858L59.0128 128.608L63.0989 124.525L71.2713 116.358L86.9747 100.665C87.3287 100.311 87.3287 99.737 86.9747 99.3831L86.5636 98.9722L86.1447 98.5536C85.7936 98.2029 85.2256 98.1995 84.8704 98.5458L68.7024 114.309L60.298 122.503L56.0956 126.6L54.8886 127.705L53.6192 128.883L52.1684 130.333L51.7045 130.762C51.6512 130.812 51.5922 130.855 51.5288 130.89L50.899 131.239" stroke="white" stroke-width="0.7"/>
<path d="M75.1792 106.532L75.1804 106.53L75.6282 105.971C75.6701 105.918 75.7063 105.862 75.7364 105.802L76.0017 105.271C76.0396 105.196 76.0672 105.115 76.0837 105.032L76.2014 104.445C76.229 104.307 76.2255 104.164 76.1914 104.028L75.9676 103.133C75.9259 102.966 76.0357 102.799 76.2058 102.77C76.3031 102.754 76.4023 102.788 76.4698 102.86L76.5407 102.935C76.6256 103.026 76.6729 103.145 76.6729 103.269V103.511V104.44V104.443L76.7863 106.503V107.655C76.7863 107.735 76.7964 107.816 76.8167 107.893L77.3305 109.874C77.3831 110.076 77.3209 110.291 77.1683 110.434C76.8894 110.695 76.4375 110.614 76.2665 110.273L75.187 108.115L74.9704 107.484L74.9702 107.484L74.8221 107.039C74.8068 106.993 74.817 106.943 74.8489 106.906L75.1792 106.532Z" stroke="white" stroke-width="0.5"/>
<path d="M76.7409 110.443C77.1666 110.443 77.5117 110.099 77.5117 109.673C77.5117 109.248 77.1666 108.903 76.7409 108.903C76.3153 108.903 75.9702 109.248 75.9702 109.673C75.9702 110.099 76.3153 110.443 76.7409 110.443Z" fill="white" stroke="white" stroke-width="0.5"/>
<path d="M76.3775 109.521L76.4381 109.37L76.5892 109.31L76.7409 109.249L76.8927 109.31L77.0438 109.37L77.1044 109.521L77.1649 109.673L77.1044 109.825L77.0438 109.976L76.8927 110.036L76.7409 110.097L76.5892 110.036L76.4381 109.976L76.3775 109.825L76.317 109.673L76.3775 109.521Z" fill="#D9D9D9" stroke="white" stroke-width="0.3"/>
<path d="M75.6529 107.498C75.8532 107.498 76.0155 107.336 76.0155 107.136C76.0155 106.936 75.8532 106.773 75.6529 106.773C75.4525 106.773 75.2902 106.936 75.2902 107.136C75.2902 107.336 75.4525 107.498 75.6529 107.498Z" fill="white" stroke="white"/>
<path d="M51.5337 133.958L75.3808 107.136" stroke="white" stroke-width="0.4"/>
<path d="M87.7124 101.88C90.1662 101.88 92.1554 99.8923 92.1554 97.4401C92.1554 94.9879 90.1662 93 87.7124 93C85.2586 93 83.2694 94.9879 83.2694 97.4401C83.2694 99.8923 85.2586 101.88 87.7124 101.88Z" stroke="white"/>
<path d="M87.7124 100.068C89.1647 100.068 90.342 98.8914 90.342 97.4401C90.342 95.9888 89.1647 94.8123 87.7124 94.8123C86.2602 94.8123 85.0829 95.9888 85.0829 97.4401C85.0829 98.8914 86.2602 100.068 87.7124 100.068Z" stroke="white"/>
<path d="M87.7124 99.1618C88.6639 99.1618 89.4352 98.391 89.4352 97.4401C89.4352 96.4893 88.6639 95.7184 87.7124 95.7184C86.7609 95.7184 85.9896 96.4893 85.9896 97.4401C85.9896 98.391 86.7609 99.1618 87.7124 99.1618Z" stroke="white"/>
<path d="M91.43 97.3495C91.6304 97.3495 91.7927 97.1872 91.7927 96.9871C91.7927 96.7869 91.6304 96.6246 91.43 96.6246C91.2297 96.6246 91.0674 96.7869 91.0674 96.9871C91.0674 97.1872 91.2297 97.3495 91.43 97.3495Z" fill="white" stroke="white"/>
<path d="M84.9016 95.5372C85.1019 95.5372 85.2643 95.3749 85.2643 95.1747C85.2643 94.9746 85.1019 94.8123 84.9016 94.8123C84.7013 94.8123 84.5389 94.9746 84.5389 95.1747C84.5389 95.3749 84.7013 95.5372 84.9016 95.5372Z" fill="white" stroke="white"/>
<path d="M87.6218 97.8932C87.8221 97.8932 87.9845 97.7309 87.9845 97.5307C87.9845 97.3306 87.8221 97.1683 87.6218 97.1683C87.4214 97.1683 87.2591 97.3306 87.2591 97.5307C87.2591 97.7309 87.4214 97.8932 87.6218 97.8932Z" stroke="white"/>
<path d="M81.9871 101.427L82.1814 101.155L82.2844 101.005C82.3769 100.871 82.4313 100.713 82.4416 100.55L82.4715 100.085C82.4755 100.021 82.4728 99.957 82.4635 99.894L82.3765 99.3071C82.3647 99.2276 82.3422 99.1498 82.3098 99.0761L82.0689 98.5275C82.0151 98.4046 81.9345 98.2953 81.8332 98.2073L81.1366 97.603C80.9865 97.4727 80.9794 97.242 81.1214 97.1027C81.2026 97.0229 81.3185 96.989 81.43 97.0124L81.5312 97.0338C81.6642 97.0615 81.7813 97.1389 81.8593 97.25L81.998 97.4483L82.5312 98.2091L83.8071 99.8327" stroke="white" stroke-width="0.5"/>
</g>
<path d="M126.01 49.9198C138.804 49.9198 149.213 39.511 149.213 26.717C149.212 13.923 138.804 3.51456 126.01 3.51456C113.216 3.51456 102.808 13.923 102.808 26.717C102.808 39.511 113.216 49.9198 126.01 49.9198ZM126.01 6.97846C136.894 6.97846 145.749 15.833 145.749 26.717C145.749 37.601 136.894 46.4559 126.01 46.4559C115.126 46.4559 106.271 37.601 106.271 26.717C106.271 15.833 115.126 6.97846 126.01 6.97846Z" stroke="white"/>
<path d="M66.8482 91.7947C67.1787 91.7947 66.5173 91.8233 66.8482 91.7947Z" stroke="white"/>
<path d="M165.747 57.5949H159.274C155.94 57.5949 153.227 60.3078 153.227 63.6425V151.244H137.71C144.712 147.255 149.257 139.732 149.257 131.389L149.256 70.5621C149.256 57.9662 139.008 47.7187 126.412 47.7187C117.074 47.7187 108.705 53.4154 105.235 62.0055L66.2742 65.3655C59.9691 65.9091 55.2814 71.4819 55.8251 77.7878C56.332 83.6716 61.3506 88.2806 67.2506 88.2806L103.569 85.1757V123.729L73.352 123.729C68.2222 123.729 63.2818 126.452 60.4541 130.837C60.4439 130.853 60.4337 130.869 60.4239 130.885L30.9119 176.457C28.6974 179.877 27.9476 183.954 28.7997 187.937C29.6518 191.921 32.0048 195.334 35.4243 197.549C37.9008 199.152 40.7628 200 43.7014 200C48.9013 200 53.6921 197.397 56.5154 193.037L81.6413 154.232H82.859C82.3288 155.131 82.0191 156.175 82.0191 157.292V179.732C82.0191 183.067 84.7319 185.78 88.0667 185.78H165.747C169.082 185.78 171.795 183.067 171.795 179.732V63.6429C171.795 60.3078 169.082 57.5949 165.747 57.5949ZM142.415 142.307C142.655 141.236 142.785 140.123 142.785 138.98C142.785 130.57 135.943 123.729 127.533 123.729H126.501L107.033 103.479V88.129L145.793 128.135V131.389C145.793 135.39 144.558 139.167 142.415 142.307ZM126.412 51.1822C137.099 51.1822 145.792 59.8758 145.792 70.5617L145.793 123.156L108.58 84.747L124.244 83.4079C130.55 82.8639 135.237 77.2915 134.694 70.986C134.186 65.1018 129.168 60.4928 123.269 60.4928C122.938 60.4928 122.603 60.5074 122.272 60.5356L109.201 61.6628C112.49 55.2998 119.1 51.1822 126.412 51.1822ZM59.2767 77.4899C58.8969 73.0867 62.1697 69.1957 66.5721 68.8163L122.57 63.9868C122.802 63.9669 123.037 63.9567 123.269 63.9567C127.386 63.9567 130.888 67.1753 131.242 71.2834C131.622 75.6863 128.348 79.5772 123.946 79.9571L67.2506 84.8163C63.1335 84.8163 59.6305 81.5981 59.2767 77.4899ZM107.033 108.477L121.696 123.729H107.033V108.477ZM80.6995 150.768C80.1123 150.768 79.565 151.066 79.2459 151.559L53.6082 191.154C51.4259 194.524 47.7224 196.537 43.7018 196.536C41.4328 196.536 39.2216 195.881 37.3075 194.641C36.382 194.042 35.56 193.327 34.8513 192.521L64.5651 146.605C65.0847 145.802 64.8553 144.73 64.052 144.21C63.2488 143.691 62.1766 143.92 61.6571 144.723L32.8284 189.271C32.5562 188.612 32.339 187.925 32.187 187.213C31.528 184.134 32.1079 180.983 33.8191 178.34L63.3389 132.755C63.3434 132.749 63.3474 132.742 63.3519 132.735C63.3548 132.731 63.3568 132.727 63.3584 132.725C65.5537 129.312 69.3832 127.193 73.352 127.193L127.533 127.192C133.406 127.192 138.288 131.509 139.176 137.136H93.465C92.5086 137.136 91.7331 137.912 91.7331 138.868C91.7331 139.825 92.5086 140.6 93.465 140.6H139.207C138.415 146.336 133.483 150.768 127.533 150.768L80.6995 150.768ZM168.331 179.732C168.331 181.157 167.172 182.316 165.747 182.316H88.0667C86.642 182.316 85.483 181.157 85.483 179.732V175.441H138.697C139.654 175.441 140.429 174.666 140.429 173.709C140.429 172.753 139.654 171.977 138.697 171.977H85.483V157.291C85.483 155.867 86.642 154.708 88.0667 154.708H154.959C155.916 154.708 156.691 153.932 156.691 152.976V63.6425C156.691 62.2178 157.85 61.0588 159.274 61.0588H165.748C167.172 61.0588 168.331 62.2178 168.331 63.6425L168.331 179.732Z" stroke="white"/>
<path d="M38.9931 86.3625L31.1582 90.67C30.3199 91.1305 30.0139 92.1839 30.4748 93.0218C30.9353 93.86 31.9879 94.1665 32.8266 93.7052L40.7308 89.3598L50.9888 107.055C51.9534 108.719 53.6438 109.753 55.4002 109.753C56.1472 109.753 56.877 109.558 57.512 109.191L61.198 107.054C63.3786 105.79 64.0017 102.775 62.5864 100.333L40.1635 61.6543C39.1985 59.9904 37.5081 58.9569 35.7521 58.9569C35.0051 58.9569 34.2749 59.1513 33.6404 59.5189L29.9544 61.6555C28.8634 62.288 28.1063 63.4058 27.8768 64.7221C27.6637 65.9447 27.9086 67.243 28.566 68.3767L38.9931 86.3625ZM31.2898 65.3167C31.3212 65.1378 31.4149 64.813 31.692 64.6524L35.3776 62.5158C35.4881 62.4518 35.6107 62.4208 35.7521 62.4208C36.1759 62.4208 36.7779 62.7212 37.167 63.392L59.5895 102.07C60.0785 102.914 59.9139 103.795 59.4607 104.057L55.7751 106.194C55.6647 106.258 55.542 106.289 55.4006 106.289C54.9768 106.289 54.3749 105.988 53.9861 105.318L31.5637 66.6395C31.3171 66.2148 31.2173 65.7327 31.2898 65.3167Z" stroke="white"/>
</g>
<defs>
<clipPath id="clip0_10_2">
<rect width="200" height="200" fill="white"/>
</clipPath>
<clipPath id="clip1_10_2">
<rect width="70" height="112" fill="white" transform="translate(41 75)"/>
</clipPath>
</defs>
</svg>
